<svg width="205" height="98" viewBox="0 0 205 98" fill="none" xmlns="http://www.w3.org/2000/svg">
<g filter="url(#filter0_d_426_239)">
<rect x="30" y="26" width="145" height="38" rx="10" fill="white"/>
<path opacity="0.9" d="M65.3952 48H64.5072V42.4H67.9312V43.192H65.3952V44.888H67.8512V45.68H65.3952V48ZM68.6489 43.104C68.5476 43.0027 68.4969 42.88 68.4969 42.736C68.4969 42.592 68.5476 42.4693 68.6489 42.368C68.7556 42.2667 68.8809 42.216 69.0249 42.216C69.1689 42.216 69.2916 42.2667 69.3929 42.368C69.4942 42.4693 69.5449 42.592 69.5449 42.736C69.5449 42.88 69.4942 43.0027 69.3929 43.104C69.2916 43.2053 69.1689 43.256 69.0249 43.256C68.8809 43.256 68.7556 43.2053 68.6489 43.104ZM69.4409 48H68.6009V43.912H69.4409V48ZM72.5662 43.832C73.0622 43.832 73.4675 43.9947 73.7822 44.32C74.1022 44.6453 74.2622 45.0587 74.2622 45.56V48H73.4222V45.688C73.4222 45.3733 73.3182 45.1147 73.1102 44.912C72.9022 44.704 72.6408 44.6 72.3262 44.6C72.0115 44.6 71.7475 44.704 71.5342 44.912C71.3262 45.1147 71.2222 45.3733 71.2222 45.688V48H70.3822V43.912H71.2222V44.496C71.5475 44.0533 71.9955 43.832 72.5662 43.832ZM76.8512 43.832C77.3419 43.832 77.7419 43.96 78.0512 44.216C78.3606 44.472 78.5152 44.84 78.5152 45.32V48H77.6752V47.392C77.3392 47.8507 76.8646 48.08 76.2512 48.08C75.8619 48.08 75.5446 47.976 75.2992 47.768C75.0539 47.56 74.9312 47.2827 74.9312 46.936C74.9312 46.536 75.0726 46.2373 75.3552 46.04C75.6379 45.8373 75.9979 45.712 76.4352 45.664L77.2272 45.584C77.5259 45.5573 77.6752 45.424 77.6752 45.184C77.6752 44.9867 77.5979 44.8293 77.4432 44.712C77.2939 44.5947 77.0966 44.536 76.8512 44.536C76.6006 44.536 76.3872 44.6 76.2112 44.728C76.0406 44.856 75.9312 45.0427 75.8832 45.288L75.0512 45.088C75.1259 44.704 75.3259 44.4 75.6512 44.176C75.9766 43.9467 76.3766 43.832 76.8512 43.832ZM76.4352 47.4C76.7819 47.4 77.0752 47.2853 77.3152 47.056C77.5552 46.8213 77.6752 46.5493 77.6752 46.24V46.08C77.6059 46.144 77.4512 46.1893 77.2112 46.216L76.4352 46.312C76.2326 46.3387 76.0699 46.4 75.9472 46.496C75.8299 46.5867 75.7712 46.712 75.7712 46.872C75.7712 47.032 75.8299 47.16 75.9472 47.256C76.0699 47.352 76.2326 47.4 76.4352 47.4ZM81.6052 43.832C82.1012 43.832 82.5066 43.9947 82.8212 44.32C83.1412 44.6453 83.3012 45.0587 83.3012 45.56V48H82.4612V45.688C82.4612 45.3733 82.3572 45.1147 82.1492 44.912C81.9412 44.704 81.6799 44.6 81.3652 44.6C81.0506 44.6 80.7866 44.704 80.5732 44.912C80.3652 45.1147 80.2612 45.3733 80.2612 45.688V48H79.4212V43.912H80.2612V44.496C80.5866 44.0533 81.0346 43.832 81.6052 43.832ZM84.6743 47.472C84.2583 47.0667 84.0503 46.5627 84.0503 45.96C84.0503 45.3573 84.2583 44.8533 84.6743 44.448C85.0903 44.0373 85.6049 43.832 86.2183 43.832C86.6609 43.832 87.0556 43.9467 87.4023 44.176C87.7543 44.4053 88.0129 44.72 88.1783 45.12L87.4023 45.384C87.2956 45.144 87.1383 44.9547 86.9303 44.816C86.7223 44.6773 86.4849 44.608 86.2183 44.608C85.8503 44.608 85.5409 44.7387 85.2903 45C85.0396 45.256 84.9143 45.576 84.9143 45.96C84.9143 46.344 85.0396 46.664 85.2903 46.92C85.5409 47.176 85.8503 47.304 86.2183 47.304C86.4849 47.304 86.7223 47.2373 86.9303 47.104C87.1436 46.9653 87.3009 46.7733 87.4023 46.528L88.1783 46.792C88.0129 47.192 87.7543 47.5067 87.4023 47.736C87.0556 47.9653 86.6609 48.08 86.2183 48.08C85.6049 48.08 85.0903 47.8773 84.6743 47.472ZM88.9692 43.104C88.8679 43.0027 88.8172 42.88 88.8172 42.736C88.8172 42.592 88.8679 42.4693 88.9692 42.368C89.0759 42.2667 89.2012 42.216 89.3452 42.216C89.4892 42.216 89.6119 42.2667 89.7132 42.368C89.8146 42.4693 89.8652 42.592 89.8652 42.736C89.8652 42.88 89.8146 43.0027 89.7132 43.104C89.6119 43.2053 89.4892 43.256 89.3452 43.256C89.2012 43.256 89.0759 43.2053 88.9692 43.104ZM89.7612 48H88.9212V43.912H89.7612V48ZM92.3825 43.832C92.8731 43.832 93.2731 43.96 93.5825 44.216C93.8918 44.472 94.0465 44.84 94.0465 45.32V48H93.2065V47.392C92.8705 47.8507 92.3958 48.08 91.7825 48.08C91.3931 48.08 91.0758 47.976 90.8305 47.768C90.5851 47.56 90.4625 47.2827 90.4625 46.936C90.4625 46.536 90.6038 46.2373 90.8865 46.04C91.1691 45.8373 91.5291 45.712 91.9665 45.664L92.7585 45.584C93.0571 45.5573 93.2065 45.424 93.2065 45.184C93.2065 44.9867 93.1291 44.8293 92.9745 44.712C92.8251 44.5947 92.6278 44.536 92.3825 44.536C92.1318 44.536 91.9185 44.6 91.7425 44.728C91.5718 44.856 91.4625 45.0427 91.4145 45.288L90.5825 45.088C90.6571 44.704 90.8571 44.4 91.1825 44.176C91.5078 43.9467 91.9078 43.832 92.3825 43.832ZM91.9665 47.4C92.3131 47.4 92.6065 47.2853 92.8465 47.056C93.0865 46.8213 93.2065 46.5493 93.2065 46.24V46.08C93.1371 46.144 92.9825 46.1893 92.7425 46.216L91.9665 46.312C91.7638 46.3387 91.6011 46.4 91.4785 46.496C91.3611 46.5867 91.3025 46.712 91.3025 46.872C91.3025 47.032 91.3611 47.16 91.4785 47.256C91.6011 47.352 91.7638 47.4 91.9665 47.4ZM95.7925 48H94.9525V42.08H95.7925V48ZM104.396 48H103.452L102.892 46.648H100.196L99.6362 48H98.7322L101.084 42.4H102.052L104.396 48ZM101.548 43.376L100.524 45.856H102.564L101.548 43.376ZM104.985 43.104C104.884 43.0027 104.833 42.88 104.833 42.736C104.833 42.592 104.884 42.4693 104.985 42.368C105.092 42.2667 105.217 42.216 105.361 42.216C105.505 42.216 105.628 42.2667 105.729 42.368C105.83 42.4693 105.881 42.592 105.881 42.736C105.881 42.88 105.83 43.0027 105.729 43.104C105.628 43.2053 105.505 43.256 105.361 43.256C105.217 43.256 105.092 43.2053 104.985 43.104ZM105.777 48H104.937V43.912H105.777V48ZM110.03 44.52V42.08H110.87V48H110.03V47.392C109.667 47.8507 109.182 48.08 108.574 48.08C108.003 48.08 107.523 47.8773 107.134 47.472C106.75 47.0667 106.558 46.5627 106.558 45.96C106.558 45.3573 106.75 44.8533 107.134 44.448C107.523 44.0373 108.003 43.832 108.574 43.832C109.182 43.832 109.667 44.0613 110.03 44.52ZM108.726 47.304C109.099 47.304 109.409 47.176 109.654 46.92C109.905 46.664 110.03 46.344 110.03 45.96C110.03 45.5707 109.905 45.248 109.654 44.992C109.409 44.736 109.099 44.608 108.726 44.608C108.358 44.608 108.049 44.7387 107.798 45C107.547 45.256 107.422 45.576 107.422 45.96C107.422 46.344 107.547 46.664 107.798 46.92C108.049 47.176 108.358 47.304 108.726 47.304ZM114.258 43.104C114.157 43.0027 114.106 42.88 114.106 42.736C114.106 42.592 114.157 42.4693 114.258 42.368C114.365 42.2667 114.49 42.216 114.634 42.216C114.778 42.216 114.901 42.2667 115.002 42.368C115.104 42.4693 115.154 42.592 115.154 42.736C115.154 42.88 115.104 43.0027 115.002 43.104C114.901 43.2053 114.778 43.256 114.634 43.256C114.49 43.256 114.365 43.2053 114.258 43.104ZM115.05 48H114.21V43.912H115.05V48ZM115.752 46.92L116.592 46.744C116.666 47.1813 116.965 47.4 117.488 47.4C117.754 47.4 117.968 47.3493 118.128 47.248C118.293 47.1413 118.376 47.008 118.376 46.848C118.376 46.6773 118.29 46.5493 118.12 46.464C117.949 46.3733 117.741 46.3093 117.496 46.272C117.25 46.2293 117.002 46.1787 116.752 46.12C116.506 46.0613 116.298 45.9467 116.128 45.776C115.957 45.6 115.872 45.3653 115.872 45.072C115.872 44.7147 116.024 44.4187 116.328 44.184C116.637 43.9493 117.024 43.832 117.488 43.832C117.952 43.832 118.33 43.936 118.624 44.144C118.922 44.352 119.101 44.6347 119.16 44.992L118.32 45.168C118.256 44.7307 117.978 44.512 117.488 44.512C117.264 44.512 117.08 44.56 116.936 44.656C116.792 44.752 116.72 44.8773 116.72 45.032C116.72 45.1707 116.781 45.2827 116.904 45.368C117.026 45.4533 117.181 45.5093 117.368 45.536C117.554 45.5627 117.754 45.6027 117.968 45.656C118.186 45.7093 118.389 45.7707 118.576 45.84C118.762 45.904 118.917 46.0213 119.04 46.192C119.162 46.3627 119.224 46.576 119.224 46.832C119.224 47.1893 119.056 47.488 118.72 47.728C118.389 47.9627 117.978 48.08 117.488 48.08C117.002 48.08 116.608 47.976 116.304 47.768C116 47.56 115.816 47.2773 115.752 46.92ZM124.007 43.832C124.498 43.832 124.898 43.96 125.207 44.216C125.517 44.472 125.671 44.84 125.671 45.32V48H124.831V47.392C124.495 47.8507 124.021 48.08 123.407 48.08C123.018 48.08 122.701 47.976 122.455 47.768C122.21 47.56 122.087 47.2827 122.087 46.936C122.087 46.536 122.229 46.2373 122.511 46.04C122.794 45.8373 123.154 45.712 123.591 45.664L124.383 45.584C124.682 45.5573 124.831 45.424 124.831 45.184C124.831 44.9867 124.754 44.8293 124.599 44.712C124.45 44.5947 124.253 44.536 124.007 44.536C123.757 44.536 123.543 44.6 123.367 44.728C123.197 44.856 123.087 45.0427 123.039 45.288L122.207 45.088C122.282 44.704 122.482 44.4 122.807 44.176C123.133 43.9467 123.533 43.832 124.007 43.832ZM123.591 47.4C123.938 47.4 124.231 47.2853 124.471 47.056C124.711 46.8213 124.831 46.5493 124.831 46.24V46.08C124.762 46.144 124.607 46.1893 124.367 46.216L123.591 46.312C123.389 46.3387 123.226 46.4 123.103 46.496C122.986 46.5867 122.927 46.712 122.927 46.872C122.927 47.032 122.986 47.16 123.103 47.256C123.226 47.352 123.389 47.4 123.591 47.4ZM128.156 47.176L129.42 43.912H130.268L128.596 48H127.652L125.98 43.912H126.892L128.156 47.176ZM132.297 43.832C132.787 43.832 133.187 43.96 133.497 44.216C133.806 44.472 133.961 44.84 133.961 45.32V48H133.121V47.392C132.785 47.8507 132.31 48.08 131.697 48.08C131.307 48.08 130.99 47.976 130.745 47.768C130.499 47.56 130.377 47.2827 130.377 46.936C130.377 46.536 130.518 46.2373 130.801 46.04C131.083 45.8373 131.443 45.712 131.881 45.664L132.673 45.584C132.971 45.5573 133.121 45.424 133.121 45.184C133.121 44.9867 133.043 44.8293 132.889 44.712C132.739 44.5947 132.542 44.536 132.297 44.536C132.046 44.536 131.833 44.6 131.657 44.728C131.486 44.856 131.377 45.0427 131.329 45.288L130.497 45.088C130.571 44.704 130.771 44.4 131.097 44.176C131.422 43.9467 131.822 43.832 132.297 43.832ZM131.881 47.4C132.227 47.4 132.521 47.2853 132.761 47.056C133.001 46.8213 133.121 46.5493 133.121 46.24V46.08C133.051 46.144 132.897 46.1893 132.657 46.216L131.881 46.312C131.678 46.3387 131.515 46.4 131.393 46.496C131.275 46.5867 131.217 46.712 131.217 46.872C131.217 47.032 131.275 47.16 131.393 47.256C131.515 47.352 131.678 47.4 131.881 47.4ZM134.915 43.104C134.813 43.0027 134.763 42.88 134.763 42.736C134.763 42.592 134.813 42.4693 134.915 42.368C135.021 42.2667 135.147 42.216 135.291 42.216C135.435 42.216 135.557 42.2667 135.659 42.368C135.76 42.4693 135.811 42.592 135.811 42.736C135.811 42.88 135.76 43.0027 135.659 43.104C135.557 43.2053 135.435 43.256 135.291 43.256C135.147 43.256 135.021 43.2053 134.915 43.104ZM135.707 48H134.867V43.912H135.707V48ZM137.488 48H136.648V42.08H137.488V48ZM140.109 43.832C140.6 43.832 141 43.96 141.309 44.216C141.618 44.472 141.773 44.84 141.773 45.32V48H140.933V47.392C140.597 47.8507 140.122 48.08 139.509 48.08C139.12 48.08 138.802 47.976 138.557 47.768C138.312 47.56 138.189 47.2827 138.189 46.936C138.189 46.536 138.33 46.2373 138.613 46.04C138.896 45.8373 139.256 45.712 139.693 45.664L140.485 45.584C140.784 45.5573 140.933 45.424 140.933 45.184C140.933 44.9867 140.856 44.8293 140.701 44.712C140.552 44.5947 140.354 44.536 140.109 44.536C139.858 44.536 139.645 44.6 139.469 44.728C139.298 44.856 139.189 45.0427 139.141 45.288L138.309 45.088C138.384 44.704 138.584 44.4 138.909 44.176C139.234 43.9467 139.634 43.832 140.109 43.832ZM139.693 47.4C140.04 47.4 140.333 47.2853 140.573 47.056C140.813 46.8213 140.933 46.5493 140.933 46.24V46.08C140.864 46.144 140.709 46.1893 140.469 46.216L139.693 46.312C139.49 46.3387 139.328 46.4 139.205 46.496C139.088 46.5867 139.029 46.712 139.029 46.872C139.029 47.032 139.088 47.16 139.205 47.256C139.328 47.352 139.49 47.4 139.693 47.4ZM144.975 43.832C145.546 43.832 146.023 44.0373 146.407 44.448C146.796 44.8533 146.991 45.3573 146.991 45.96C146.991 46.5627 146.796 47.0667 146.407 47.472C146.023 47.8773 145.546 48.08 144.975 48.08C144.367 48.08 143.882 47.8507 143.519 47.392V48H142.679V42.08H143.519V44.52C143.882 44.0613 144.367 43.832 144.975 43.832ZM144.823 47.304C145.191 47.304 145.498 47.176 145.743 46.92C145.994 46.664 146.119 46.344 146.119 45.96C146.119 45.5707 145.994 45.248 145.743 44.992C145.498 44.736 145.191 44.608 144.823 44.608C144.45 44.608 144.138 44.736 143.887 44.992C143.642 45.248 143.519 45.5707 143.519 45.96C143.519 46.344 143.642 46.664 143.887 46.92C144.138 47.176 144.45 47.304 144.823 47.304ZM148.613 48H147.773V42.08H148.613V48ZM151.522 43.832C152.178 43.832 152.711 44.0667 153.122 44.536C153.533 45.0053 153.701 45.5733 153.626 46.24H150.242C150.301 46.5707 150.453 46.84 150.698 47.048C150.943 47.2507 151.239 47.352 151.586 47.352C151.853 47.352 152.09 47.288 152.298 47.16C152.511 47.0267 152.677 46.848 152.794 46.624L153.498 46.936C153.317 47.2827 153.058 47.56 152.722 47.768C152.386 47.976 151.999 48.08 151.562 48.08C150.949 48.08 150.434 47.8773 150.018 47.472C149.602 47.0667 149.394 46.5627 149.394 45.96C149.394 45.3573 149.597 44.8533 150.002 44.448C150.413 44.0373 150.919 43.832 151.522 43.832ZM151.522 44.56C151.213 44.56 150.943 44.656 150.714 44.848C150.49 45.0347 150.341 45.28 150.266 45.584H152.778C152.709 45.28 152.559 45.0347 152.33 44.848C152.106 44.656 151.837 44.56 151.522 44.56Z" fill="#2C2B31"/>
<circle cx="53.5" cy="44.5" r="3.5" fill="#15BAB1"/>
</g>
<defs>
<filter id="filter0_d_426_239" x="0" y="0" width="205" height="98" filterUnits="userSpaceOnUse" color-interpolation-filters="sRGB">
<feFlood flood-opacity="0" result="BackgroundImageFix"/>
<feColorMatrix in="SourceAlpha" type="matrix" values="0 0 0 0 0 0 0 0 0 0 0 0 0 0 0 0 0 0 127 0" result="hardAlpha"/>
<feOffset dy="4"/>
<feGaussianBlur stdDeviation="15"/>
<feComposite in2="hardAlpha" operator="out"/>
<feColorMatrix type="matrix" values="0 0 0 0 0 0 0 0 0 0 0 0 0 0 0 0 0 0 0.15 0"/>
<feBlend mode="normal" in2="BackgroundImageFix" result="effect1_dropShadow_426_239"/>
<feBlend mode="normal" in="SourceGraphic" in2="effect1_dropShadow_426_239" result="shape"/>
</filter>
</defs>
</svg>
