<svg width="104" height="23" viewBox="0 0 104 23" fill="none" xmlns="http://www.w3.org/2000/svg">
<path d="M22.8277 14.7396C22.6314 16.3312 22.0864 17.6939 21.1925 18.8277C20.3203 19.9614 19.1757 20.8335 17.7585 21.444C16.3413 22.0545 14.7279 22.3597 12.9182 22.3597C11.283 22.3597 9.77862 22.109 8.40503 21.6075C7.05325 21.1061 5.87589 20.3866 4.87296 19.4491C3.87002 18.5115 3.08512 17.3669 2.51824 16.0151C1.95136 14.6415 1.66792 13.1044 1.66792 11.4038C1.66792 9.68134 1.95136 8.14424 2.51824 6.79245C3.08512 5.44067 3.87002 4.29602 4.87296 3.35849C5.87589 2.39916 7.05325 1.66876 8.40503 1.1673C9.77862 0.665829 11.283 0.415096 12.9182 0.415096C14.7497 0.415096 16.374 0.731238 17.7912 1.36352C19.2084 1.974 20.353 2.85702 21.2252 4.01258C22.1191 5.14633 22.6642 6.50902 22.8604 8.10063H19.8516C19.5681 7.07589 19.0994 6.20377 18.4453 5.48428C17.7912 4.76478 16.9954 4.21971 16.0579 3.84906C15.1203 3.45661 14.0738 3.26038 12.9182 3.26038C11.4356 3.26038 10.0839 3.57652 8.86289 4.20881C7.64193 4.84109 6.6608 5.75681 5.9195 6.95598C5.2 8.15514 4.84025 9.63774 4.84025 11.4038C4.84025 13.148 5.2 14.6306 5.9195 15.8516C6.6608 17.0507 7.64193 17.9665 8.86289 18.5987C10.0839 19.2092 11.4356 19.5145 12.9182 19.5145C14.0738 19.5145 15.1094 19.3291 16.0252 18.9585C16.9627 18.5878 17.7585 18.0428 18.4126 17.3233C19.0667 16.6038 19.5463 15.7426 19.8516 14.7396H22.8277ZM73.3202 0.774843L65.2422 14.9031V22H62.1026V14.9031L54.0246 0.774843H57.6221L64.49 13.1698H62.9856L69.7227 0.774843H73.3202ZM77.3017 0.774843H80.4413V22H77.3017V0.774843ZM84.2332 0.774843H102.842V3.58742H84.2332V0.774843ZM91.9515 3.26038H95.1238V22H91.9515V3.26038Z" fill="#068D85"/>
<path d="M38.6597 1H25.5094V3.85877H38.6597V1Z" fill="#068D85"/>
<path d="M38.6597 9.00464H25.5094V11.8634H38.6597V9.00464Z" fill="#068D85"/>
<path d="M38.6597 17.0092H25.5094V19.8679H38.6597V17.0092Z" fill="#068D85"/>
<path d="M51.4729 3.69751H38.3225V6.55628H51.4729V3.69751Z" fill="#068D85"/>
<path d="M51.4729 11.79H38.3225V14.6488H51.4729V11.79Z" fill="#068D85"/>
<path d="M51.4729 19.8826H38.3225V22.7413H51.4729V19.8826Z" fill="#068D85"/>
</svg>
