<svg width="205" height="143" viewBox="0 0 205 143" fill="none" xmlns="http://www.w3.org/2000/svg">
<g filter="url(#filter0_d_426_213)">
<rect x="30" y="26" width="145" height="83" rx="10" fill="white"/>
<path opacity="0.9" d="M53.5788 44H50.437V39.4182H51.5497V43.0182H53.5788V44ZM55.6409 40.5309C56.23 40.5309 56.6991 40.7447 57.0482 41.1724C57.3973 41.6 57.5151 42.1018 57.4016 42.6778H54.934C54.9951 42.8305 55.0933 42.9527 55.2285 43.0444C55.3682 43.1316 55.5274 43.1753 55.7064 43.1753C56.0249 43.1753 56.2627 43.0487 56.4198 42.7956L57.2707 43.1884C57.1093 43.4545 56.8911 43.6684 56.6162 43.8298C56.3413 43.9869 56.0271 44.0655 55.6736 44.0655C55.1544 44.0655 54.718 43.8975 54.3645 43.5615C54.0154 43.2211 53.8409 42.8 53.8409 42.2982C53.8409 41.7964 54.0133 41.3775 54.358 41.0415C54.7027 40.7011 55.1304 40.5309 55.6409 40.5309ZM55.6409 41.4211C55.4882 41.4211 55.3507 41.4647 55.2285 41.552C55.1064 41.6349 55.0125 41.7484 54.9471 41.8924H56.3413C56.2147 41.5782 55.9813 41.4211 55.6409 41.4211ZM59.4068 40.5309C59.8607 40.5309 60.225 40.6487 60.4999 40.8844C60.7792 41.1156 60.9188 41.4582 60.9188 41.912V44H59.8716V43.6662C59.6228 43.9324 59.2956 44.0655 58.8897 44.0655C58.5668 44.0655 58.2985 43.976 58.0847 43.7971C57.8752 43.6138 57.7705 43.3716 57.7705 43.0705C57.7705 42.4073 58.2243 42.032 59.1319 41.9447L59.5967 41.9055C59.7799 41.8924 59.8716 41.8182 59.8716 41.6829C59.8716 41.5956 59.8279 41.5236 59.7407 41.4669C59.6577 41.4102 59.5508 41.3818 59.4199 41.3818C59.2716 41.3818 59.1537 41.4211 59.0665 41.4996C58.9792 41.5782 58.9268 41.6807 58.9094 41.8073L57.8687 41.5847C57.9036 41.2924 58.0563 41.0436 58.3268 40.8385C58.6017 40.6335 58.9617 40.5309 59.4068 40.5309ZM59.1581 43.2473C59.3414 43.2473 59.505 43.1818 59.649 43.0509C59.7974 42.92 59.8716 42.7738 59.8716 42.6124V42.5927C59.8279 42.6145 59.7472 42.632 59.6294 42.6451L59.1254 42.704C58.9203 42.7302 58.8177 42.8218 58.8177 42.9789C58.8177 43.0618 58.8461 43.1273 58.9028 43.1753C58.9639 43.2233 59.049 43.2473 59.1581 43.2473ZM62.5873 40.5964V41.0022C62.74 40.8058 62.9233 40.6705 63.1371 40.5964C63.3509 40.5178 63.5756 40.5178 63.8113 40.5964V41.5782C63.4622 41.4429 63.1698 41.4298 62.9342 41.5389C62.7029 41.6436 62.5873 41.8335 62.5873 42.1084V44H61.54V40.5964H62.5873ZM66.3312 40.5309C66.7327 40.5309 67.0556 40.6596 67.2999 40.9171C67.5487 41.1745 67.673 41.5062 67.673 41.912V44H66.6258V42.1084C66.6258 41.9207 66.5647 41.7702 66.4425 41.6567C66.3247 41.5389 66.1676 41.48 65.9712 41.48C65.7792 41.48 65.6221 41.5389 65.4999 41.6567C65.3778 41.7702 65.3167 41.9207 65.3167 42.1084V44H64.2694V40.5964H65.3167V41.0022C65.5741 40.688 65.9123 40.5309 66.3312 40.5309ZM68.1982 39.68C68.1982 39.5098 68.2593 39.3636 68.3815 39.2415C68.5037 39.1193 68.6498 39.0582 68.82 39.0582C68.9902 39.0582 69.1364 39.1193 69.2586 39.2415C69.3807 39.3636 69.4418 39.5098 69.4418 39.68C69.4418 39.8458 69.3807 39.992 69.2586 40.1185C69.1364 40.2407 68.9902 40.3018 68.82 40.3018C68.6498 40.3018 68.5037 40.2407 68.3815 40.1185C68.2593 39.992 68.1982 39.8458 68.1982 39.68ZM69.3437 44H68.2964V40.5964H69.3437V44ZM72.0585 40.5309C72.4599 40.5309 72.7828 40.6596 73.0272 40.9171C73.2759 41.1745 73.4003 41.5062 73.4003 41.912V44H72.353V42.1084C72.353 41.9207 72.2919 41.7702 72.1698 41.6567C72.0519 41.5389 71.8948 41.48 71.6985 41.48C71.5065 41.48 71.3494 41.5389 71.2272 41.6567C71.105 41.7702 71.0439 41.9207 71.0439 42.1084V44H69.9967V40.5964H71.0439V41.0022C71.3014 40.688 71.6396 40.5309 72.0585 40.5309ZM76.4717 40.9105V40.5964H77.5189V43.6073C77.5189 44.1091 77.3422 44.528 76.9887 44.864C76.6397 45.2044 76.2055 45.3745 75.6862 45.3745C75.3415 45.3745 75.0317 45.2938 74.7567 45.1324C74.4818 44.9709 74.268 44.7571 74.1153 44.4909L75.0447 43.9869C75.1931 44.2793 75.4069 44.4255 75.6862 44.4255C75.9044 44.4255 76.0898 44.3469 76.2426 44.1898C76.3953 44.0371 76.4717 43.8429 76.4717 43.6073V43.5549C76.2055 43.808 75.8804 43.9345 75.4964 43.9345C75.0426 43.9345 74.6607 43.7709 74.3509 43.4436C74.0455 43.1164 73.8927 42.7127 73.8927 42.2327C73.8927 41.7527 74.0455 41.3491 74.3509 41.0218C74.6607 40.6945 75.0426 40.5309 75.4964 40.5309C75.8804 40.5309 76.2055 40.6575 76.4717 40.9105ZM75.1887 42.7695C75.3327 42.9091 75.5117 42.9789 75.7255 42.9789C75.9393 42.9789 76.116 42.9091 76.2557 42.7695C76.3997 42.6255 76.4717 42.4465 76.4717 42.2327C76.4717 42.0189 76.3997 41.8422 76.2557 41.7025C76.116 41.5585 75.9393 41.4865 75.7255 41.4865C75.5117 41.4865 75.3327 41.5585 75.1887 41.7025C75.0491 41.8422 74.9793 42.0189 74.9793 42.2327C74.9793 42.4465 75.0491 42.6255 75.1887 42.7695ZM80.6974 43.3847C80.2348 42.9309 80.0035 42.3724 80.0035 41.7091C80.0035 41.0458 80.2348 40.4873 80.6974 40.0335C81.1643 39.5796 81.7403 39.3527 82.4254 39.3527C82.9359 39.3527 83.381 39.4815 83.7606 39.7389C84.1403 39.9964 84.4152 40.3105 84.5854 40.6815L83.5512 41.0742C83.4508 40.8691 83.3003 40.7011 83.0995 40.5702C82.9032 40.4393 82.6784 40.3738 82.4254 40.3738C82.0675 40.3738 81.7664 40.5025 81.5221 40.76C81.2777 41.0175 81.1555 41.3338 81.1555 41.7091C81.1555 42.0844 81.2777 42.4007 81.5221 42.6582C81.7664 42.9156 82.0675 43.0444 82.4254 43.0444C82.6784 43.0444 82.9032 42.9789 83.0995 42.848C83.3003 42.7171 83.4508 42.5491 83.5512 42.344L84.5854 42.7367C84.4152 43.1076 84.1403 43.4218 83.7606 43.6793C83.381 43.9367 82.9359 44.0655 82.4254 44.0655C81.7403 44.0655 81.1643 43.8385 80.6974 43.3847ZM87.1693 40.5309C87.5707 40.5309 87.8936 40.6596 88.138 40.9171C88.3867 41.1745 88.5111 41.5062 88.5111 41.912V44H87.4638V42.1084C87.4638 41.9207 87.4027 41.7702 87.2805 41.6567C87.1627 41.5389 87.0056 41.48 86.8093 41.48C86.6173 41.48 86.4602 41.5389 86.338 41.6567C86.2158 41.7702 86.1547 41.9207 86.1547 42.1084V44H85.1075V39.1564H86.1547V41.0022C86.4122 40.688 86.7504 40.5309 87.1693 40.5309ZM90.5744 40.5309C91.0283 40.5309 91.3926 40.6487 91.6675 40.8844C91.9468 41.1156 92.0864 41.4582 92.0864 41.912V44H91.0392V43.6662C90.7904 43.9324 90.4632 44.0655 90.0574 44.0655C89.7344 44.0655 89.4661 43.976 89.2523 43.7971C89.0428 43.6138 88.9381 43.3716 88.9381 43.0705C88.9381 42.4073 89.3919 42.032 90.2995 41.9447L90.7643 41.9055C90.9475 41.8924 91.0392 41.8182 91.0392 41.6829C91.0392 41.5956 90.9955 41.5236 90.9083 41.4669C90.8254 41.4102 90.7184 41.3818 90.5875 41.3818C90.4392 41.3818 90.3214 41.4211 90.2341 41.4996C90.1468 41.5782 90.0944 41.6807 90.077 41.8073L89.0363 41.5847C89.0712 41.2924 89.2239 41.0436 89.4944 40.8385C89.7694 40.6335 90.1294 40.5309 90.5744 40.5309ZM90.3257 43.2473C90.509 43.2473 90.6726 43.1818 90.8166 43.0509C90.965 42.92 91.0392 42.7738 91.0392 42.6124V42.5927C90.9955 42.6145 90.9148 42.632 90.797 42.6451L90.293 42.704C90.0879 42.7302 89.9854 42.8218 89.9854 42.9789C89.9854 43.0618 90.0137 43.1273 90.0704 43.1753C90.1315 43.2233 90.2166 43.2473 90.3257 43.2473ZM93.7549 40.5964V41.0022C93.9076 40.8058 94.0909 40.6705 94.3047 40.5964C94.5185 40.5178 94.7432 40.5178 94.9789 40.5964V41.5782C94.6298 41.4429 94.3374 41.4298 94.1018 41.5389C93.8705 41.6436 93.7549 41.8335 93.7549 42.1084V44H92.7076V40.5964H93.7549ZM95.8297 41.5127H95.1752V40.5964H95.8297V39.68L96.877 39.3527V40.5964H97.6952V41.5127H96.877V42.6909C96.877 42.9527 97.0079 43.0836 97.2697 43.0836H97.6952V44H97.2697C96.3097 44 95.8297 43.5418 95.8297 42.6255V41.5127Z" fill="#2C2B31"/>
<path d="M69 70.531C69 67.3741 71.5592 64.8149 74.716 64.8149C77.8729 64.8149 80.4321 67.3741 80.4321 70.531V94.4445H69V70.531Z" fill="url(#paint0_linear_426_213)"/>
<path d="M93.5635 62.6296C93.5635 59.4727 96.1227 56.9136 99.2795 56.9136C102.436 56.9136 104.996 59.4727 104.996 62.6296V94.4443H93.5635V62.6296Z" fill="url(#paint1_linear_426_213)"/>
<path d="M118.127 70.531C118.127 67.3741 120.686 64.8149 123.843 64.8149C127 64.8149 129.559 67.3741 129.559 70.531V94.4445H118.127V70.531Z" fill="url(#paint2_linear_426_213)"/>
<path d="M142.691 55.716C142.691 52.5592 145.25 50 148.407 50C151.563 50 154.123 52.5592 154.123 55.716V94.4443H142.691V55.716Z" fill="url(#paint3_linear_426_213)"/>
<g opacity="0.5">
<path d="M52.317 92.6122V94.9782H52.9831V95.3616H51.1011V94.9782H51.8872V93.1001L51.1011 93.3054V92.9259L52.317 92.6122ZM53.4274 95.0014C53.2209 94.7355 53.1176 94.4038 53.1176 94.0063C53.1176 93.6087 53.2209 93.277 53.4274 93.0111C53.6339 92.7452 53.8947 92.6122 54.2096 92.6122C54.5271 92.6122 54.7892 92.7452 54.9957 93.0111C55.2022 93.277 55.3055 93.6087 55.3055 94.0063C55.3055 94.4038 55.2022 94.7355 54.9957 95.0014C54.7892 95.2673 54.5271 95.4003 54.2096 95.4003C53.8947 95.4003 53.6339 95.2673 53.4274 95.0014ZM53.7411 93.2938C53.6197 93.4822 53.5591 93.7197 53.5591 94.0063C53.5591 94.2928 53.6197 94.5316 53.7411 94.7226C53.865 94.9111 54.0212 95.0053 54.2096 95.0053C54.3981 95.0053 54.5542 94.9111 54.6782 94.7226C54.8021 94.5316 54.864 94.2928 54.864 94.0063C54.864 93.7197 54.8021 93.4822 54.6782 93.2938C54.5542 93.1027 54.3981 93.0072 54.2096 93.0072C54.0212 93.0072 53.865 93.1027 53.7411 93.2938ZM55.9497 95.0014C55.7432 94.7355 55.6399 94.4038 55.6399 94.0063C55.6399 93.6087 55.7432 93.277 55.9497 93.0111C56.1562 92.7452 56.417 92.6122 56.7319 92.6122C57.0494 92.6122 57.3115 92.7452 57.518 93.0111C57.7245 93.277 57.8278 93.6087 57.8278 94.0063C57.8278 94.4038 57.7245 94.7355 57.518 95.0014C57.3115 95.2673 57.0494 95.4003 56.7319 95.4003C56.417 95.4003 56.1562 95.2673 55.9497 95.0014ZM56.2634 93.2938C56.142 93.4822 56.0814 93.7197 56.0814 94.0063C56.0814 94.2928 56.142 94.5316 56.2634 94.7226C56.3873 94.9111 56.5435 95.0053 56.7319 95.0053C56.9204 95.0053 57.0765 94.9111 57.2005 94.7226C57.3244 94.5316 57.3863 94.2928 57.3863 94.0063C57.3863 93.7197 57.3244 93.4822 57.2005 93.2938C57.0765 93.1027 56.9204 93.0072 56.7319 93.0072C56.5435 93.0072 56.3873 93.1027 56.2634 93.2938Z" fill="#2C2B31"/>
<path d="M51.9835 84.5577L51.1897 85.2973H52.4714V85.6807H50.5663V85.3438L51.7086 84.2595C51.8893 84.084 51.9797 83.9123 51.9797 83.7445C51.9797 83.6154 51.9358 83.5135 51.848 83.4386C51.7628 83.3611 51.6505 83.3224 51.5111 83.3224C51.3511 83.3224 51.2259 83.3702 51.1355 83.4657C51.0477 83.5586 51.0038 83.689 51.0038 83.8568H50.5624C50.5624 83.5754 50.6489 83.3508 50.8218 83.183C50.9974 83.0152 51.231 82.9313 51.5227 82.9313C51.7938 82.9313 52.0106 83.0049 52.1733 83.152C52.3359 83.2966 52.4172 83.4915 52.4172 83.7368C52.4172 84.0181 52.2727 84.2918 51.9835 84.5577ZM53.0833 85.3205C52.8768 85.0546 52.7735 84.7229 52.7735 84.3254C52.7735 83.9278 52.8768 83.5961 53.0833 83.3302C53.2898 83.0643 53.5506 82.9313 53.8655 82.9313C54.183 82.9313 54.4451 83.0643 54.6516 83.3302C54.8581 83.5961 54.9614 83.9278 54.9614 84.3254C54.9614 84.7229 54.8581 85.0546 54.6516 85.3205C54.4451 85.5864 54.183 85.7194 53.8655 85.7194C53.5506 85.7194 53.2898 85.5864 53.0833 85.3205ZM53.397 83.6128C53.2756 83.8013 53.215 84.0388 53.215 84.3254C53.215 84.6119 53.2756 84.8507 53.397 85.0417C53.5209 85.2302 53.6771 85.3244 53.8655 85.3244C54.054 85.3244 54.2101 85.2302 54.3341 85.0417C54.458 84.8507 54.5199 84.6119 54.5199 84.3254C54.5199 84.0388 54.458 83.8013 54.3341 83.6128C54.2101 83.4218 54.054 83.3263 53.8655 83.3263C53.6771 83.3263 53.5209 83.4218 53.397 83.6128ZM55.6056 85.3205C55.3991 85.0546 55.2958 84.7229 55.2958 84.3254C55.2958 83.9278 55.3991 83.5961 55.6056 83.3302C55.8121 83.0643 56.0729 82.9313 56.3878 82.9313C56.7053 82.9313 56.9674 83.0643 57.1739 83.3302C57.3804 83.5961 57.4837 83.9278 57.4837 84.3254C57.4837 84.7229 57.3804 85.0546 57.1739 85.3205C56.9674 85.5864 56.7053 85.7194 56.3878 85.7194C56.0729 85.7194 55.8121 85.5864 55.6056 85.3205ZM55.9193 83.6128C55.7979 83.8013 55.7373 84.0388 55.7373 84.3254C55.7373 84.6119 55.7979 84.8507 55.9193 85.0417C56.0432 85.2302 56.1994 85.3244 56.3878 85.3244C56.5763 85.3244 56.7325 85.2302 56.8564 85.0417C56.9803 84.8507 57.0422 84.6119 57.0422 84.3254C57.0422 84.0388 56.9803 83.8013 56.8564 83.6128C56.7325 83.4218 56.5763 83.3263 56.3878 83.3263C56.1994 83.3263 56.0432 83.4218 55.9193 83.6128Z" fill="#2C2B31"/>
<path d="M52.2986 73.6263L51.5977 74.3814C51.8378 74.402 52.0288 74.4859 52.1708 74.6331C52.3153 74.7802 52.3876 74.9687 52.3876 75.1984C52.3876 75.4437 52.2986 75.645 52.1204 75.8025C51.9449 75.96 51.7126 76.0387 51.4234 76.0387C51.1395 76.0387 50.9136 75.9651 50.7458 75.818C50.578 75.6683 50.4837 75.4617 50.4631 75.1984L50.9045 75.1481C50.9123 75.303 50.9613 75.4243 51.0517 75.5121C51.1446 75.5999 51.2698 75.6437 51.4273 75.6437C51.5899 75.6437 51.7177 75.6012 51.8107 75.516C51.9036 75.4282 51.9501 75.312 51.9501 75.1675C51.9501 75.028 51.8997 74.9158 51.799 74.8306C51.6984 74.7428 51.5512 74.6989 51.3576 74.6989H51.1485V74.362L51.7758 73.6727H50.587V73.2894H52.2986V73.6263ZM53.0588 75.6399C52.8522 75.374 52.749 75.0422 52.749 74.6447C52.749 74.2471 52.8522 73.9154 53.0588 73.6495C53.2653 73.3836 53.526 73.2507 53.841 73.2507C54.1585 73.2507 54.4205 73.3836 54.627 73.6495C54.8336 73.9154 54.9368 74.2471 54.9368 74.6447C54.9368 75.0422 54.8336 75.374 54.627 75.6399C54.4205 75.9058 54.1585 76.0387 53.841 76.0387C53.526 76.0387 53.2653 75.9058 53.0588 75.6399ZM53.3724 73.9322C53.2511 74.1206 53.1904 74.3581 53.1904 74.6447C53.1904 74.9312 53.2511 75.17 53.3724 75.3611C53.4963 75.5495 53.6525 75.6437 53.841 75.6437C54.0294 75.6437 54.1856 75.5495 54.3095 75.3611C54.4334 75.17 54.4954 74.9312 54.4954 74.6447C54.4954 74.3581 54.4334 74.1206 54.3095 73.9322C54.1856 73.7411 54.0294 73.6456 53.841 73.6456C53.6525 73.6456 53.4963 73.7411 53.3724 73.9322ZM55.5811 75.6399C55.3745 75.374 55.2713 75.0422 55.2713 74.6447C55.2713 74.2471 55.3745 73.9154 55.5811 73.6495C55.7876 73.3836 56.0483 73.2507 56.3633 73.2507C56.6808 73.2507 56.9428 73.3836 57.1493 73.6495C57.3559 73.9154 57.4591 74.2471 57.4591 74.6447C57.4591 75.0422 57.3559 75.374 57.1493 75.6399C56.9428 75.9058 56.6808 76.0387 56.3633 76.0387C56.0483 76.0387 55.7876 75.9058 55.5811 75.6399ZM55.8947 73.9322C55.7734 74.1206 55.7127 74.3581 55.7127 74.6447C55.7127 74.9312 55.7734 75.17 55.8947 75.3611C56.0186 75.5495 56.1748 75.6437 56.3633 75.6437C56.5517 75.6437 56.7079 75.5495 56.8318 75.3611C56.9557 75.17 57.0177 74.9312 57.0177 74.6447C57.0177 74.3581 56.9557 74.1206 56.8318 73.9322C56.7079 73.7411 56.5517 73.6456 56.3633 73.6456C56.1748 73.6456 56.0186 73.7411 55.8947 73.9322Z" fill="#2C2B31"/>
</g>
</g>
<defs>
<filter id="filter0_d_426_213" x="0" y="0" width="205" height="143" filterUnits="userSpaceOnUse" color-interpolation-filters="sRGB">
<feFlood flood-opacity="0" result="BackgroundImageFix"/>
<feColorMatrix in="SourceAlpha" type="matrix" values="0 0 0 0 0 0 0 0 0 0 0 0 0 0 0 0 0 0 127 0" result="hardAlpha"/>
<feOffset dy="4"/>
<feGaussianBlur stdDeviation="15"/>
<feComposite in2="hardAlpha" operator="out"/>
<feColorMatrix type="matrix" values="0 0 0 0 0 0 0 0 0 0 0 0 0 0 0 0 0 0 0.15 0"/>
<feBlend mode="normal" in2="BackgroundImageFix" result="effect1_dropShadow_426_213"/>
<feBlend mode="normal" in="SourceGraphic" in2="effect1_dropShadow_426_213" result="shape"/>
</filter>
<linearGradient id="paint0_linear_426_213" x1="69" y1="90.0847" x2="75.3143" y2="62.7728" gradientUnits="userSpaceOnUse">
<stop stop-color="#F55D8D"/>
<stop offset="1" stop-color="#FFA4C1"/>
</linearGradient>
<linearGradient id="paint1_linear_426_213" x1="99.1251" y1="94.6223" x2="101.415" y2="56.76" gradientUnits="userSpaceOnUse">
<stop stop-color="#947DFC"/>
<stop offset="1" stop-color="#AD9BFF"/>
</linearGradient>
<linearGradient id="paint2_linear_426_213" x1="123.998" y1="96.8914" x2="125.632" y2="65.098" gradientUnits="userSpaceOnUse">
<stop stop-color="#54CDEC"/>
<stop offset="1" stop-color="#89E7FF"/>
</linearGradient>
<linearGradient id="paint3_linear_426_213" x1="147.995" y1="94.6223" x2="149.629" y2="54.1373" gradientUnits="userSpaceOnUse">
<stop stop-color="#F8AD54"/>
<stop offset="1" stop-color="#FBBD75"/>
</linearGradient>
</defs>
</svg>
