<svg width="18" height="19" viewBox="0 0 18 19" fill="none" xmlns="http://www.w3.org/2000/svg">
<path d="M7.23881 1.60161C7.14022 1.60161 7.04259 1.58435 6.9515 1.55082C6.86041 1.51728 6.77765 1.46813 6.70793 1.40617C6.63822 1.34421 6.58291 1.27065 6.54518 1.1897C6.50745 1.10874 6.48803 1.02198 6.48803 0.934349C6.48803 0.846724 6.50745 0.759956 6.54518 0.679C6.58291 0.598045 6.63822 0.524486 6.70793 0.462526C6.77765 0.400565 6.86041 0.351415 6.9515 0.317882C7.04259 0.284349 7.14022 0.26709 7.23881 0.26709H10.7785C10.9776 0.26709 11.1686 0.33739 11.3094 0.462526C11.4502 0.587661 11.5293 0.757381 11.5293 0.934349C11.5293 1.11132 11.4502 1.28104 11.3094 1.40617C11.1686 1.53131 10.9776 1.60161 10.7785 1.60161H7.23881ZM3.7652 2.00374C3.9058 2.12886 3.98477 2.29845 3.98477 2.47527C3.98477 2.6521 3.9058 2.82169 3.7652 2.9468L1.2626 5.171C1.12028 5.28887 0.932039 5.35303 0.737536 5.34998C0.543032 5.34693 0.357455 5.27691 0.219899 5.15465C0.0823426 5.0324 0.00354875 4.86747 0.000116969 4.6946C-0.00331481 4.52173 0.0688834 4.35443 0.201501 4.22794L2.7041 2.00374C2.84487 1.87879 3.0357 1.8086 3.23465 1.8086C3.43361 1.8086 3.62443 1.87879 3.7652 2.00374ZM9.2409 4.03221C7.80549 4.03221 6.40232 4.41051 5.20882 5.11926C4.01532 5.82802 3.08511 6.8354 2.5358 8.01401C1.98649 9.19263 1.84277 10.4895 2.1228 11.7408C2.40284 12.992 3.09405 14.1413 4.10904 15.0434C5.12402 15.9454 6.41719 16.5597 7.82502 16.8086C9.23284 17.0575 10.6921 16.9298 12.0182 16.4416C13.3444 15.9534 14.4779 15.1266 15.2753 14.0659C16.0728 13.0052 16.4984 11.7581 16.4984 10.4824C16.4984 10.3054 16.5775 10.1357 16.7183 10.0106C16.8591 9.88543 17.0501 9.81513 17.2492 9.81513C17.4483 9.81513 17.6393 9.88543 17.7801 10.0106C17.9209 10.1357 18 10.3054 18 10.4824C18 12.0221 17.4863 13.5272 16.5238 14.8073C15.5614 16.0875 14.1934 17.0853 12.5929 17.6745C10.9923 18.2637 9.23118 18.4179 7.53208 18.1175C5.83298 17.8171 4.27226 17.0757 3.04727 15.987C1.82229 14.8983 0.988068 13.5112 0.650096 12.0011C0.312124 10.491 0.485584 8.92578 1.14854 7.50332C1.8115 6.08085 2.93417 4.86505 4.3746 4.00965C5.81503 3.15426 7.50851 2.69769 9.2409 2.69769C9.44001 2.69769 9.63098 2.76799 9.77178 2.89313C9.91258 3.01827 9.99168 3.18799 9.99168 3.36495C9.99168 3.54192 9.91258 3.71164 9.77178 3.83678C9.63098 3.96191 9.44001 4.03221 9.2409 4.03221Z" fill="white"/>
<path d="M14.4338 6.35778C14.5454 6.22937 14.6005 6.06924 14.5888 5.90734C14.5772 5.74544 14.4996 5.59287 14.3705 5.47815C14.2414 5.36344 14.0697 5.29444 13.8876 5.28408C13.7054 5.27371 13.5252 5.32269 13.3808 5.42183L10.2075 7.61489L8.1333 8.93162C7.93435 9.05823 7.7688 9.22181 7.64814 9.411C7.52749 9.6002 7.45462 9.81047 7.4346 10.0272C7.41459 10.244 7.4479 10.462 7.53224 10.6661C7.61657 10.8703 7.74989 11.0556 7.92295 11.2094C8.09601 11.3631 8.30466 11.4816 8.5344 11.5564C8.76413 11.6313 9.00945 11.6608 9.25331 11.6429C9.49718 11.625 9.73374 11.5602 9.94656 11.4529C10.1594 11.3456 10.3434 11.1983 10.4857 11.0215L11.9663 9.17806L14.4338 6.35778Z" fill="white"/>
</svg>
