<svg width="36" height="35" viewBox="0 0 36 35" fill="none" xmlns="http://www.w3.org/2000/svg">
<path fill-rule="evenodd" clip-rule="evenodd" d="M10.1003 10.6663C10.0986 8.88804 10.7461 7.17026 11.9211 5.83552C13.0962 4.50077 14.7181 3.64086 16.4823 3.41724C18.2465 3.19361 20.0316 3.62165 21.5026 4.62099C22.9735 5.62033 24.0291 7.12224 24.4711 8.84473C24.5618 9.1977 24.7645 9.51176 25.0488 9.73977C25.3331 9.96777 25.6836 10.0974 26.0479 10.1093C27.6687 10.1629 29.2159 10.7993 30.4054 11.9017C31.7328 13.1348 32.5617 14.8891 32.5617 16.8432C32.5617 17.29 32.7391 17.7185 33.0551 18.0344C33.371 18.3503 33.7995 18.5278 34.2463 18.5278C34.693 18.5278 35.1215 18.3503 35.4374 18.0344C35.7534 17.7185 35.9309 17.29 35.9309 16.8432C35.931 15.4516 35.6438 14.075 35.0873 12.7995C34.5307 11.524 33.7168 10.3773 32.6964 9.43097C31.217 8.05866 29.3606 7.1606 27.3664 6.85241C26.4864 4.55629 24.8404 2.63453 22.7068 1.4121C20.5732 0.189672 18.0829 -0.258417 15.657 0.143608C13.2312 0.545633 11.0185 1.7731 9.39336 3.61845C7.76817 5.4638 6.83014 7.81378 6.73788 10.271C4.69328 10.689 2.87656 11.8509 1.63959 13.5316C0.402625 15.2124 -0.166545 17.2924 0.042325 19.3688C0.251195 21.4452 1.22324 23.3702 2.77018 24.7709C4.31712 26.1717 6.32886 26.9484 8.41574 26.9508H9.53881C9.98559 26.9508 10.4141 26.7733 10.73 26.4574C11.0459 26.1415 11.2234 25.713 11.2234 25.2662C11.2234 24.8194 11.0459 24.3909 10.73 24.075C10.4141 23.7591 9.98559 23.5816 9.53881 23.5816H8.41574C7.07539 23.5822 5.7897 23.0503 4.84151 22.103C3.89332 21.1556 3.36029 19.8704 3.3597 18.53C3.3591 17.1897 3.89098 15.904 4.83833 14.9558C5.78568 14.0076 7.0709 13.4746 8.41125 13.474H8.47863C8.71802 13.4749 8.95485 13.4248 9.17333 13.3269C9.39182 13.2291 9.58695 13.0858 9.74571 12.9067C9.90448 12.7275 10.0232 12.5165 10.0941 12.2879C10.1649 12.0592 10.1862 11.8181 10.1565 11.5805C10.1171 11.2774 10.0983 10.972 10.1003 10.6663ZM29.2127 24.0061C28.1487 23.7288 27.2062 23.1075 26.5318 22.239C25.8575 21.3705 25.4892 20.3034 25.4841 19.2039L23.9567 18.6289C23.2668 19.5636 22.2911 20.2481 21.1774 20.5788C20.0637 20.9095 18.8726 20.8684 17.7844 20.4617L16.8724 21.7398C18.1527 23.5097 18.1527 25.94 16.8724 27.7077L17.7844 28.9858C18.8723 28.5796 20.063 28.5388 21.1762 28.8695C22.2894 29.2002 23.2647 29.8844 23.9545 30.8186L25.4818 30.2459C25.4864 29.1459 25.8545 28.0784 26.5289 27.2094C27.2033 26.3404 28.1461 25.7188 29.2104 25.4414L29.2127 24.0061ZM28.9589 18.6244C29.0331 18.4269 29.0677 18.2167 29.0607 18.0059C29.0537 17.795 29.0052 17.5876 28.918 17.3955C28.8308 17.2034 28.7066 17.0304 28.5525 16.8863C28.3985 16.7422 28.2175 16.6298 28.02 16.5557L23.9814 15.0418C23.7425 14.9521 23.4883 14.9103 23.2332 14.9189C22.9781 14.9274 22.7272 14.9862 22.4949 15.0917C22.2625 15.1973 22.0532 15.3475 21.879 15.534C21.7047 15.7204 21.5689 15.9394 21.4792 16.1783C21.3722 16.4575 21.2026 16.7083 20.9834 16.9116C20.7642 17.1148 20.5013 17.2651 20.2149 17.3508C19.9285 17.4365 19.6263 17.4553 19.3315 17.4059C19.0366 17.3564 18.7571 17.24 18.5143 17.0656C18.0879 16.7604 17.558 16.6364 17.0404 16.7206C16.5228 16.8048 16.0595 17.0903 15.7516 17.5148L13.3348 20.8975C13.2022 21.0826 13.1075 21.292 13.0561 21.5138C13.0046 21.7356 12.9975 21.9653 13.0351 22.1898C13.0726 22.4144 13.1542 22.6293 13.275 22.8223C13.3958 23.0152 13.5535 23.1824 13.7391 23.3143C14.7049 24.0039 14.7049 25.4436 13.7391 26.1332C13.5535 26.2651 13.3958 26.4323 13.275 26.6252C13.1542 26.8182 13.0726 27.0331 13.0351 27.2577C12.9975 27.4822 13.0046 27.712 13.0561 27.9337C13.1075 28.1555 13.2022 28.365 13.3348 28.55L15.7516 31.9327C16.0595 32.3573 16.5228 32.6428 17.0404 32.7269C17.558 32.8111 18.0879 32.6871 18.5143 32.3819C18.7571 32.2075 19.0366 32.0911 19.3315 32.0416C19.6263 31.9922 19.9285 32.0111 20.2149 32.0967C20.5013 32.1824 20.7642 32.3327 20.9834 32.536C21.2026 32.7392 21.3722 32.9901 21.4792 33.2692C21.5689 33.5081 21.7047 33.7271 21.879 33.9135C22.0532 34.1 22.2625 34.2503 22.4949 34.3558C22.7272 34.4613 22.9781 34.5201 23.2332 34.5286C23.4883 34.5372 23.7425 34.4954 23.9814 34.4057L28.02 32.8918C28.4183 32.7421 28.741 32.4403 28.917 32.0529C29.093 31.6654 29.1081 31.2239 28.9589 30.8254C28.8677 30.5823 28.8369 30.3208 28.869 30.0632C28.901 29.8056 28.9951 29.5596 29.143 29.3463C29.2909 29.133 29.4884 28.9588 29.7184 28.8385C29.9484 28.7182 30.2042 28.6554 30.4638 28.6556H30.7647C31.2465 28.655 31.7083 28.4634 32.049 28.1227C32.3896 27.7821 32.5813 27.3202 32.5819 26.8385V22.609C32.5807 22.1277 32.3888 21.6664 32.0482 21.3262C31.7076 20.9861 31.2461 20.7947 30.7647 20.7941H30.4638C30.2042 20.7943 29.9484 20.7316 29.7184 20.6113C29.4884 20.491 29.2909 20.3167 29.143 20.1034C28.9951 19.8901 28.901 19.6442 28.869 19.3866C28.8369 19.129 28.8677 18.8674 28.9589 18.6244ZM24.8417 24.7092C24.8515 25.0254 24.7976 25.3405 24.6833 25.6355C24.569 25.9306 24.3966 26.1997 24.1763 26.4269C23.956 26.6541 23.6924 26.8347 23.4009 26.958C23.1095 27.0814 22.7963 27.1449 22.4799 27.1449C22.1635 27.1449 21.8502 27.0814 21.5588 26.958C21.2674 26.8347 21.0038 26.6541 20.7835 26.4269C20.5632 26.1997 20.3908 25.9306 20.2765 25.6355C20.1622 25.3405 20.1083 25.0254 20.1181 24.7092C20.137 24.0954 20.3941 23.5131 20.835 23.0856C21.2759 22.6581 21.8658 22.4191 22.4799 22.4191C23.094 22.4191 23.6839 22.6581 24.1248 23.0856C24.5656 23.5131 24.8228 24.0954 24.8417 24.7092Z" fill="white"/>
</svg>
