<svg width="294" height="182" viewBox="0 0 294 182" fill="none" xmlns="http://www.w3.org/2000/svg">
<rect width="294" height="182" fill="#FDA43C"/>
<path fill-rule="evenodd" clip-rule="evenodd" d="M120.794 68.6875C120.788 62.7376 122.954 56.9903 126.886 52.5245C130.817 48.0587 136.244 45.1816 142.146 44.4334C148.049 43.6852 154.022 45.1173 158.943 48.4609C163.865 51.8045 167.397 56.8296 168.875 62.5927C169.179 63.7737 169.857 64.8245 170.808 65.5874C171.759 66.3502 172.932 66.784 174.151 66.8237C179.574 67.0032 184.751 69.1325 188.73 72.8208C193.172 76.9466 195.945 82.8159 195.945 89.3541C195.945 90.8489 196.539 92.2825 197.596 93.3396C198.653 94.3966 200.086 94.9904 201.581 94.9904C203.076 94.9904 204.51 94.3966 205.567 93.3396C206.624 92.2825 207.218 90.8489 207.218 89.3541C207.218 84.698 206.257 80.0921 204.395 75.8246C202.533 71.5572 199.81 67.7203 196.396 64.5542C191.446 59.9627 185.235 56.958 178.562 55.9268C175.618 48.2445 170.111 41.8146 162.973 37.7246C155.834 33.6346 147.502 32.1354 139.385 33.4805C131.269 34.8256 123.866 38.9325 118.428 45.1066C112.991 51.2808 109.852 59.1434 109.544 67.3648C102.703 68.7632 96.6244 72.6507 92.4858 78.2742C88.3471 83.8977 86.4428 90.8571 87.1416 97.8043C87.8405 104.752 91.0927 111.192 96.2685 115.879C101.444 120.565 108.175 123.164 115.157 123.172H118.915C120.41 123.172 121.843 122.578 122.9 121.521C123.957 120.464 124.551 119.031 124.551 117.536C124.551 116.041 123.957 114.607 122.9 113.55C121.843 112.493 120.41 111.899 118.915 111.899H115.157C110.673 111.901 106.371 110.122 103.199 106.952C100.026 103.783 98.2429 99.4825 98.2409 94.9979C98.2389 90.5134 100.018 86.2117 103.188 83.0392C106.358 79.8668 110.658 78.0834 115.142 78.0814H115.368C116.169 78.0844 116.961 77.9166 117.692 77.5893C118.423 77.262 119.076 76.7826 119.607 76.1831C120.138 75.5837 120.536 74.8779 120.773 74.1128C121.01 73.3477 121.081 72.5409 120.982 71.7461C120.85 70.732 120.787 69.7101 120.794 68.6875ZM184.74 113.32C181.18 112.392 178.027 110.313 175.77 107.407C173.514 104.501 172.282 100.931 172.265 97.2524L167.155 95.3286C164.846 98.4559 161.582 100.746 157.856 101.853C154.129 102.959 150.144 102.822 146.503 101.461L143.452 105.737C147.735 111.659 147.735 119.79 143.452 125.705L146.503 129.981C150.143 128.622 154.127 128.485 157.851 129.592C161.576 130.698 164.839 132.987 167.147 136.113L172.257 134.197C172.273 130.517 173.504 126.945 175.761 124.037C178.017 121.13 181.171 119.05 184.732 118.122L184.74 113.32ZM183.891 95.3136C184.139 94.6528 184.255 93.9497 184.231 93.2442C184.208 92.5387 184.046 91.8448 183.754 91.202C183.462 90.5593 183.047 89.9803 182.531 89.4981C182.016 89.016 181.41 88.6402 180.749 88.3921L167.237 83.3269C166.438 83.0268 165.587 82.887 164.734 82.9156C163.88 82.9443 163.041 83.1408 162.263 83.4939C161.486 83.8471 160.786 84.3499 160.203 84.9737C159.62 85.5975 159.165 86.3301 158.865 87.1296C158.507 88.0634 157.94 88.9027 157.206 89.5827C156.473 90.2628 155.593 90.7655 154.635 91.0523C153.677 91.339 152.666 91.4021 151.679 91.2366C150.693 91.0712 149.758 90.6817 148.945 90.0981C147.518 89.0772 145.746 88.6622 144.014 88.9438C142.282 89.2254 140.732 90.1807 139.702 91.6011L131.616 102.919C131.172 103.538 130.855 104.239 130.683 104.981C130.511 105.723 130.487 106.492 130.613 107.243C130.738 107.994 131.011 108.713 131.415 109.359C131.82 110.004 132.347 110.564 132.968 111.005C136.2 113.312 136.2 118.129 132.968 120.437C132.347 120.878 131.82 121.437 131.415 122.083C131.011 122.729 130.738 123.448 130.613 124.199C130.487 124.95 130.511 125.719 130.683 126.461C130.855 127.203 131.172 127.904 131.616 128.523L139.702 139.841C140.732 141.261 142.282 142.216 144.014 142.498C145.746 142.779 147.518 142.365 148.945 141.344C149.758 140.76 150.693 140.37 151.679 140.205C152.666 140.04 153.677 140.103 154.635 140.389C155.593 140.676 156.473 141.179 157.206 141.859C157.94 142.539 158.507 143.378 158.865 144.312C159.165 145.112 159.62 145.844 160.203 146.468C160.786 147.092 161.486 147.595 162.263 147.948C163.041 148.301 163.88 148.497 164.734 148.526C165.587 148.555 166.438 148.415 167.237 148.115L180.749 143.05C182.082 142.549 183.162 141.539 183.751 140.243C184.34 138.946 184.39 137.469 183.891 136.136C183.586 135.322 183.483 134.447 183.59 133.586C183.697 132.724 184.012 131.901 184.507 131.187C185.002 130.473 185.662 129.89 186.432 129.488C187.202 129.085 188.057 128.875 188.926 128.876H189.933C191.545 128.874 193.09 128.233 194.23 127.093C195.369 125.953 196.011 124.408 196.013 122.796V108.645C196.009 107.035 195.367 105.492 194.227 104.353C193.087 103.215 191.543 102.575 189.933 102.573H188.926C188.057 102.574 187.202 102.364 186.432 101.961C185.662 101.559 185.002 100.976 184.507 100.262C184.012 99.5485 183.697 98.7255 183.59 97.8637C183.483 97.0018 183.586 96.1268 183.891 95.3136ZM170.115 115.672C170.148 116.73 169.968 117.784 169.585 118.771C169.203 119.759 168.626 120.659 167.889 121.419C167.152 122.179 166.27 122.784 165.295 123.196C164.32 123.609 163.272 123.822 162.213 123.822C161.155 123.822 160.107 123.609 159.132 123.196C158.157 122.784 157.275 122.179 156.537 121.419C155.8 120.659 155.224 119.759 154.841 118.771C154.459 117.784 154.279 116.73 154.311 115.672C154.375 113.618 155.235 111.67 156.71 110.24C158.185 108.81 160.159 108.01 162.213 108.01C164.268 108.01 166.242 108.81 167.717 110.24C169.192 111.67 170.052 113.618 170.115 115.672Z" fill="white"/>
</svg>
