<svg width="14" height="14" viewBox="0 0 14 14" fill="none" xmlns="http://www.w3.org/2000/svg">
<path fill-rule="evenodd" clip-rule="evenodd" d="M6.79033 13.1311L6.78254 13.1324L6.73229 13.154L6.71813 13.1565L6.70822 13.154L6.65796 13.1324C6.65041 13.1303 6.64475 13.1314 6.64098 13.1355L6.63815 13.1416L6.62611 13.406L6.62965 13.4184L6.63673 13.4264L6.71034 13.4721L6.72096 13.4746L6.72946 13.4721L6.80307 13.4264L6.81157 13.4165L6.8144 13.406L6.80236 13.1423C6.80048 13.1357 6.79647 13.132 6.79033 13.1311ZM6.97791 13.0613L6.96871 13.0626L6.83776 13.12L6.83068 13.1262L6.82855 13.133L6.84129 13.3986L6.84483 13.406L6.8505 13.4103L6.99277 13.4678C7.00174 13.4699 7.00858 13.4682 7.0133 13.4629L7.01613 13.4542L6.99206 13.0749C6.98971 13.0675 6.98499 13.063 6.97791 13.0613ZM6.4718 13.0626C6.46868 13.0609 6.46495 13.0604 6.46139 13.0611C6.45783 13.0618 6.45472 13.0636 6.45269 13.0663L6.44844 13.0749L6.42438 13.4542C6.42485 13.4616 6.42886 13.4666 6.43641 13.469L6.44703 13.4678L6.5893 13.4103L6.59638 13.4054L6.59921 13.3986L6.61125 13.133L6.60912 13.1256L6.60204 13.1194L6.4718 13.0626Z" fill="#059B93"/>
<path fill-rule="evenodd" clip-rule="evenodd" d="M0 1.23541C0 0.90776 0.149151 0.593528 0.414643 0.361844C0.680134 0.130159 1.04022 0 1.41568 0H2.83136C3.08901 0 3.33109 0.0599174 3.5392 0.165545C3.7544 0.0571041 3.99853 9.54191e-06 4.24704 0H5.66272C6.17732 0 6.62821 0.23967 6.87595 0.598557C7.0246 0.494783 7.19873 0.415716 7.39409 0.370006L8.76164 0.0506519C8.94123 0.00861265 9.12855 -0.00214176 9.3129 0.019003C9.49725 0.0401478 9.67502 0.0927776 9.83607 0.173886C9.99711 0.254995 10.1383 0.362994 10.2515 0.491715C10.3647 0.620436 10.4477 0.767357 10.4958 0.924088L13.4263 10.4707C13.4745 10.6275 13.4868 10.7909 13.4626 10.9518C13.4383 11.1127 13.378 11.2678 13.2851 11.4083C13.1921 11.5489 13.0684 11.6721 12.9209 11.7709C12.7734 11.8696 12.605 11.9421 12.4254 11.9841L11.0579 12.3035C10.8783 12.3455 10.691 12.3563 10.5066 12.3351C10.3223 12.314 10.1445 12.2613 9.98344 12.1802C9.8224 12.0991 9.68124 11.9911 9.56804 11.8624C9.45483 11.7337 9.37179 11.5868 9.32366 11.43L7.0784 4.11578V11.1187C7.0784 11.4464 6.92924 11.7606 6.66375 11.9923C6.39826 12.224 6.03818 12.3541 5.66272 12.3541H4.24704C3.99853 12.3541 3.7544 12.297 3.5392 12.1886C3.32399 12.297 3.07986 12.3541 2.83136 12.3541H1.41568C1.04022 12.3541 0.680134 12.224 0.414643 11.9923C0.149151 11.7606 0 11.4464 0 11.1187V1.23541ZM1.41568 1.23541H2.83136V11.1187H1.41568V1.23541ZM5.66272 11.1187H4.24704V1.23541H5.66272V11.1187ZM7.76075 1.56341L9.12759 1.24406L12.0595 10.7907L10.6919 11.1101L7.76075 1.56341Z" fill="#059B93"/>
</svg>
