<svg width="10" height="9" viewBox="0 0 10 9" fill="none" xmlns="http://www.w3.org/2000/svg">
<path fill-rule="evenodd" clip-rule="evenodd" d="M0 0.84509C0 0.620958 0.102028 0.406006 0.283638 0.247521C0.465249 0.0890359 0.711566 0 0.968402 0H1.9368C2.11305 0 2.27865 0.0409868 2.42101 0.113242C2.56822 0.0390623 2.73521 6.52719e-06 2.90521 0H3.87361C4.22562 0 4.53406 0.163947 4.70353 0.409446C4.80521 0.338458 4.92432 0.284373 5.05796 0.253104L5.99344 0.0346487C6.11629 0.00589152 6.24443 -0.00146508 6.37053 0.0129991C6.49664 0.0274633 6.61825 0.063465 6.72841 0.118948C6.83857 0.174431 6.93513 0.248308 7.01257 0.33636C7.09001 0.424412 7.14681 0.524915 7.17973 0.632127L9.18433 7.16256C9.21728 7.26976 9.22571 7.38158 9.20913 7.49163C9.19256 7.60168 9.15131 7.7078 9.08773 7.80394C9.02415 7.90007 8.93949 7.98433 8.83859 8.05191C8.73769 8.11949 8.62252 8.16906 8.49967 8.19779L7.56419 8.41625C7.44134 8.445 7.3132 8.45236 7.1871 8.4379C7.06099 8.42343 6.93938 8.38743 6.82922 8.33195C6.71906 8.27646 6.6225 8.20259 6.54506 8.11454C6.46762 8.02648 6.41082 7.92598 6.3779 7.81877L4.84201 2.81542V7.60581C4.84201 7.82994 4.73998 8.04489 4.55837 8.20337C4.37676 8.36186 4.13044 8.4509 3.87361 8.4509H2.90521C2.73521 8.45089 2.56822 8.41183 2.42101 8.33765C2.27379 8.41183 2.1068 8.45089 1.9368 8.4509H0.968402C0.711566 8.4509 0.465249 8.36186 0.283638 8.20337C0.102028 8.04489 0 7.82994 0 7.60581V0.84509ZM0.968402 0.84509H1.9368V7.60581H0.968402V0.84509ZM3.87361 7.60581H2.90521V0.84509H3.87361V7.60581ZM5.30878 1.06946L6.24377 0.851005L8.24933 7.38143L7.31386 7.59989L5.30878 1.06946Z" fill="#059B93"/>
</svg>
