<svg width="38" height="35" viewBox="0 0 38 35" fill="none" xmlns="http://www.w3.org/2000/svg">
<path d="M37.2802 25.2542V22.8491H34.7547C34.5984 22.0965 34.2991 21.3808 33.8732 20.7409L35.6651 18.9491L33.9646 17.2486L32.1728 19.0405C31.5328 18.615 30.8172 18.3162 30.0647 18.1602V15.6335H27.6595V18.1602C26.907 18.3162 26.1914 18.615 25.5514 19.0405L23.7595 17.2486L22.059 18.9491L23.8509 20.7409C23.425 21.3808 23.1258 22.0965 22.9694 22.8491H20.444V25.2542H22.9694C23.1257 26.0203 23.4312 26.7322 23.8497 27.3624L22.0578 29.1542L23.7583 30.8547L25.5501 29.0628C26.1904 29.4888 26.9065 29.7881 27.6595 29.9443V32.4697H30.0647V29.9443C30.8172 29.7883 31.5328 29.4895 32.1728 29.064L33.9646 30.8559L35.6651 29.1554L33.8732 27.3636C34.2993 26.7233 34.5985 26.0072 34.7547 25.2542H37.2802ZM28.8621 27.6594C27.9052 27.6594 26.9876 27.2793 26.311 26.6027C25.6344 25.9261 25.2543 25.0085 25.2543 24.0516C25.2543 23.0948 25.6344 22.1772 26.311 21.5006C26.9876 20.824 27.9052 20.4439 28.8621 20.4439C29.8189 20.4439 30.7366 20.824 31.4131 21.5006C32.0897 22.1772 32.4698 23.0948 32.4698 24.0516C32.4698 25.0085 32.0897 25.9261 31.4131 26.6027C30.7366 27.2793 29.8189 27.6594 28.8621 27.6594Z" fill="white"/>
<path d="M25.2543 6.01293C25.2543 2.6974 22.5569 0 19.2414 0C17.1008 0 15.1057 1.15208 14.0342 3.00646C13.6512 3.67293 13.3943 4.40431 13.2765 5.1639C11.8585 4.15226 10.1601 3.60827 8.4181 3.60776C3.77612 3.60776 0 7.38388 0 12.0259C0.00152269 13.567 0.426111 15.0782 1.22748 16.3947C2.02885 17.7111 3.17624 18.7823 4.54457 19.4915C3.24698 20.5955 2.40517 22.219 2.40517 24.0517C2.40517 27.3672 5.10257 30.0646 8.4181 30.0646C9.3008 30.0646 10.1342 29.8626 10.8894 29.5187C11.2225 32.5215 13.7456 34.875 16.8362 34.875C17.6262 34.8771 18.4087 34.7226 19.1386 34.4204C19.8685 34.1182 20.5313 33.6743 21.0885 33.1144L19.3869 31.4127C19.0527 31.7488 18.6553 32.0153 18.2174 32.1968C17.7796 32.3782 17.3101 32.471 16.8362 32.4698C14.8471 32.4698 13.2284 30.8511 13.2284 28.8621C13.2284 26.873 14.8471 25.2543 16.8362 25.2543V22.8491C15.9523 22.8491 15.1201 23.0524 14.3649 23.3951C14.1951 21.8782 13.4548 20.4827 12.294 19.4915C13.6619 18.782 14.8088 17.7107 15.6097 16.3942C16.4107 15.0778 16.8349 13.5668 16.8362 12.0259C16.8362 11.8491 16.8194 11.6759 16.8085 11.5015C17.5541 11.8334 18.3743 12.0259 19.2414 12.0259C22.5569 12.0259 25.2543 9.32846 25.2543 6.01293ZM16.1146 4.20905C16.4324 3.66108 16.8884 3.20609 17.4371 2.88955C17.9858 2.573 18.6079 2.40598 19.2414 2.40517C21.2304 2.40517 22.8491 4.02385 22.8491 6.01293C22.8491 8.00201 21.2304 9.62069 19.2414 9.62069C17.2523 9.62069 15.6336 8.00201 15.6336 6.01293H15.5975C15.6408 5.32024 15.8044 4.74781 16.1146 4.20905ZM12.0259 24.0517C12.0259 26.0408 10.4072 27.6595 8.4181 27.6595C6.42902 27.6595 4.81034 26.0408 4.81034 24.0517C4.81034 22.0626 6.42902 20.444 8.4181 20.444C10.4072 20.444 12.0259 22.0626 12.0259 24.0517ZM8.4181 18.0388C5.10257 18.0388 2.40517 15.3414 2.40517 12.0259C2.40517 8.71033 5.10257 6.01293 8.4181 6.01293C11.7336 6.01293 14.431 8.71033 14.431 12.0259C14.431 15.3414 11.7336 18.0388 8.4181 18.0388Z" fill="white"/>
</svg>
