<svg width="294" height="182" viewBox="0 0 294 182" fill="none" xmlns="http://www.w3.org/2000/svg">
<rect width="294" height="182" fill="#F65F8F"/>
<path d="M208.866 116.909V108.918H200.475C199.956 106.417 198.962 104.039 197.547 101.913L203.5 95.9597L197.85 90.3098L191.897 96.2634C189.77 94.8498 187.393 93.8569 184.892 93.3385V84.9436H176.901V93.3385C174.401 93.8569 172.023 94.8498 169.896 96.2634L163.943 90.3098L158.293 95.9597L164.247 101.913C162.832 104.039 161.837 106.417 161.318 108.918H152.927V116.909H161.318C161.837 119.454 162.852 121.82 164.243 123.914L158.289 129.867L163.939 135.517L169.892 129.563C172.02 130.979 174.399 131.973 176.901 132.492V140.883H184.892V132.492C187.393 131.974 189.77 130.981 191.897 129.567L197.85 135.521L203.5 129.871L197.547 123.918C198.962 121.79 199.956 119.411 200.475 116.909H208.866ZM180.897 124.9C177.717 124.9 174.668 123.638 172.42 121.39C170.172 119.142 168.91 116.093 168.91 112.913C168.91 109.734 170.172 106.685 172.42 104.437C174.668 102.189 177.717 100.926 180.897 100.926C184.076 100.926 187.125 102.189 189.373 104.437C191.621 106.685 192.884 109.734 192.884 112.913C192.884 116.093 191.621 119.142 189.373 121.39C187.125 123.638 184.076 124.9 180.897 124.9Z" fill="white"/>
<path d="M168.909 52.9784C168.909 41.9623 159.947 33 148.931 33C141.819 33 135.19 36.8279 131.63 42.9892C130.357 45.2036 129.504 47.6337 129.112 50.1575C124.401 46.7962 118.758 44.9888 112.97 44.9871C97.5465 44.9871 85 57.5335 85 72.9569C85.0051 78.0776 86.4158 83.0986 89.0784 87.4727C91.741 91.8467 95.5533 95.4058 100.1 97.7621C95.7884 101.43 92.9914 106.824 92.9914 112.914C92.9914 123.93 101.954 132.892 112.97 132.892C115.903 132.892 118.672 132.221 121.181 131.078C122.288 141.055 130.671 148.875 140.94 148.875C143.564 148.882 146.164 148.369 148.59 147.365C151.015 146.361 153.217 144.886 155.068 143.025L149.414 137.371C148.304 138.488 146.984 139.374 145.529 139.976C144.074 140.579 142.514 140.888 140.94 140.884C134.331 140.884 128.953 135.505 128.953 128.896C128.953 122.288 134.331 116.909 140.94 116.909V108.918C138.003 108.918 135.238 109.593 132.728 110.732C132.164 105.692 129.704 101.055 125.848 97.7621C130.393 95.4048 134.203 91.8452 136.865 87.4712C139.526 83.0972 140.935 78.0768 140.94 72.9569C140.94 72.3695 140.884 71.7941 140.848 71.2148C143.325 72.3176 146.05 72.9569 148.931 72.9569C159.947 72.9569 168.909 63.9945 168.909 52.9784ZM138.542 46.9849C139.598 45.1642 141.113 43.6525 142.936 42.6008C144.759 41.549 146.826 40.9941 148.931 40.9914C155.54 40.9914 160.918 46.3696 160.918 52.9784C160.918 59.5873 155.54 64.9655 148.931 64.9655C142.322 64.9655 136.944 59.5873 136.944 52.9784H136.824C136.968 50.6769 137.511 48.775 138.542 46.9849ZM124.957 112.914C124.957 119.523 119.579 124.901 112.97 124.901C106.361 124.901 100.983 119.523 100.983 112.914C100.983 106.305 106.361 100.927 112.97 100.927C119.579 100.927 124.957 106.305 124.957 112.914ZM112.97 92.9353C101.954 92.9353 92.9914 83.973 92.9914 72.9569C92.9914 61.9408 101.954 52.9784 112.97 52.9784C123.986 52.9784 132.948 61.9408 132.948 72.9569C132.948 83.973 123.986 92.9353 112.97 92.9353Z" fill="white"/>
</svg>
