<svg width="36" height="36" viewBox="0 0 36 36" fill="none" xmlns="http://www.w3.org/2000/svg">
<path d="M11.6815 4.38055C11.6815 3.21876 12.143 2.10455 12.9645 1.28303C13.786 0.461521 14.9002 0 16.062 0H18.9824C20.1442 0 21.2584 0.461521 22.0799 1.28303C22.9014 2.10455 23.3629 3.21876 23.3629 4.38055V35.0833H11.6815V4.38055ZM8.7611 13.6673H4.38055C3.21876 13.6673 2.10455 14.1288 1.28303 14.9503C0.461521 15.7719 0 16.8861 0 18.0479V33.6232C0 34.4311 0.654162 35.0833 1.46018 35.0833H8.7611V13.6673ZM26.2833 35.0833H33.5842C33.9715 35.0833 34.3429 34.9295 34.6167 34.6557C34.8906 34.3818 35.0444 34.0104 35.0444 33.6232V12.2071C35.0444 11.0453 34.5829 9.93113 33.7614 9.10962C32.9398 8.2881 31.8256 7.82658 30.6638 7.82658H26.2833V35.0833Z" fill="white"/>
</svg>
