<svg width="294" height="182" viewBox="0 0 294 182" fill="none" xmlns="http://www.w3.org/2000/svg">
<rect width="294" height="182" fill="#937CFC"/>
<path d="M127.651 47.4943C127.651 43.6502 129.179 39.9635 131.897 37.2453C134.615 34.5271 138.302 33 142.146 33H151.809C155.653 33 159.339 34.5271 162.058 37.2453C164.776 39.9635 166.303 43.6502 166.303 47.4943V149.083H127.651V47.4943ZM117.989 78.2223H103.494C99.6502 78.2223 95.9635 79.7493 93.2453 82.4675C90.5271 85.1858 89 88.8724 89 92.7166V144.252C89 146.925 91.1645 149.083 93.8314 149.083H117.989V78.2223ZM175.966 149.083H200.123C201.404 149.083 202.633 148.574 203.539 147.668C204.445 146.762 204.954 145.533 204.954 144.252V73.3908C204.954 69.5467 203.427 65.86 200.709 63.1418C197.991 60.4236 194.304 58.8965 190.46 58.8965H175.966V149.083Z" fill="white"/>
</svg>
