<svg width="23" height="19" viewBox="0 0 23 19" fill="none" xmlns="http://www.w3.org/2000/svg">
<path d="M23 4.06543V14.9502C23 15.8302 22.6638 16.6769 22.0601 17.3172C21.4564 17.9574 20.6309 18.3428 19.7524 18.3944L19.55 18.4002H3.45C2.57001 18.4002 1.72326 18.064 1.083 17.4603C0.442742 16.8566 0.0573764 16.0311 0.00575013 15.1526L0 14.9502V4.06543L10.8617 11.307L10.9951 11.3829C11.1524 11.4597 11.325 11.4996 11.5 11.4996C11.675 11.4996 11.8476 11.4597 12.0048 11.3829L12.1383 11.307L23 4.06543Z" fill="white"/>
<path d="M19.55 0C20.792 0 21.881 0.6555 22.4882 1.64105L11.5 8.96655L0.511719 1.64105C0.80013 1.1728 1.1963 0.780275 1.66721 0.496213C2.13811 0.21215 2.6701 0.0447778 3.21882 0.00804996L3.44997 0H19.55Z" fill="white"/>
</svg>
