<svg width="18" height="18" viewBox="0 0 18 18" fill="none" xmlns="http://www.w3.org/2000/svg">
<path d="M9.92547 0C10.9379 0.00269993 11.4518 0.00809981 11.8955 0.0206995L12.0701 0.0269993C12.2717 0.0341991 12.4706 0.0431989 12.7109 0.0539986C13.6685 0.0989976 14.3219 0.250194 14.8951 0.472489C15.4891 0.701083 15.9895 1.01068 16.4899 1.51016C16.9477 1.95991 17.3019 2.50416 17.5276 3.10492C17.7499 3.67821 17.9011 4.33159 17.9461 5.29007C17.9569 5.52947 17.9659 5.72836 17.9731 5.93086L17.9785 6.10545C17.992 6.54824 17.9974 7.06213 17.9992 8.0746L18.0001 8.74599V9.92496C18.0023 10.5814 17.9954 11.2379 17.9794 11.8941L17.974 12.0687C17.9668 12.2712 17.9578 12.4701 17.947 12.7095C17.902 13.668 17.749 14.3205 17.5276 14.8946C17.3019 15.4954 16.9477 16.0397 16.4899 16.4894C16.0402 16.9472 15.4959 17.3013 14.8951 17.5271C14.3219 17.7494 13.6685 17.9006 12.7109 17.9456L12.0701 17.9726L11.8955 17.978C11.4518 17.9906 10.9379 17.9969 9.92547 17.9987L9.25409 17.9996H8.07602C7.41927 18.0019 6.76252 17.995 6.10596 17.9789L5.93137 17.9735C5.71772 17.9654 5.50412 17.9561 5.29058 17.9456C4.33301 17.9006 3.67962 17.7494 3.10544 17.5271C2.505 17.3012 1.96106 16.9471 1.51158 16.4894C1.05344 16.0397 0.698993 15.4955 0.473001 14.8946C0.250706 14.3214 0.0995094 13.668 0.0545105 12.7095L0.0275112 12.0687L0.0230114 11.8941C0.00642129 11.2379 -0.00107934 10.5814 0.000511905 9.92496V8.0746C-0.00197914 7.41816 0.0046214 6.76171 0.0203115 6.10545L0.0266113 5.93086C0.0338111 5.72836 0.0428109 5.52947 0.0536106 5.29007C0.0986095 4.33159 0.249806 3.67911 0.4721 3.10492C0.69862 2.50392 1.05369 1.95965 1.51248 1.51016C1.9617 1.05257 2.50532 0.698449 3.10544 0.472489C3.67962 0.250194 4.33211 0.0989976 5.29058 0.0539986C5.52998 0.0431989 5.72977 0.0341991 5.93137 0.0269993L6.10596 0.0215994C6.76222 0.0056093 7.41867 -0.0012912 8.07512 0.000899913L9.92547 0ZM9.00029 4.49989C7.80685 4.49989 6.66228 4.97399 5.81839 5.81788C4.9745 6.66177 4.5004 7.80634 4.5004 8.99978C4.5004 10.1932 4.9745 11.3378 5.81839 12.1817C6.66228 13.0256 7.80685 13.4997 9.00029 13.4997C10.1937 13.4997 11.3383 13.0256 12.1822 12.1817C13.0261 11.3378 13.5002 10.1932 13.5002 8.99978C13.5002 7.80634 13.0261 6.66177 12.1822 5.81788C11.3383 4.97399 10.1937 4.49989 9.00029 4.49989ZM9.00029 6.29985C9.35485 6.29979 9.70595 6.36957 10.0335 6.5052C10.3611 6.64083 10.6588 6.83965 10.9096 7.09032C11.1603 7.34099 11.3592 7.6386 11.495 7.96615C11.6307 8.2937 11.7006 8.64477 11.7007 8.99933C11.7007 9.35389 11.631 9.70499 11.4953 10.0326C11.3597 10.3602 11.1609 10.6579 10.9102 10.9086C10.6595 11.1594 10.3619 11.3583 10.0344 11.494C9.70683 11.6298 9.35575 11.6997 9.00119 11.6997C8.28513 11.6997 7.59839 11.4153 7.09205 10.9089C6.58572 10.4026 6.30126 9.71585 6.30126 8.99978C6.30126 8.28372 6.58572 7.59698 7.09205 7.09064C7.59839 6.5843 8.28513 6.29985 9.00119 6.29985M13.7261 3.14992C13.4277 3.14992 13.1416 3.26845 12.9306 3.47942C12.7196 3.69039 12.6011 3.97654 12.6011 4.2749C12.6011 4.57326 12.7196 4.8594 12.9306 5.07037C13.1416 5.28135 13.4277 5.39987 13.7261 5.39987C14.0244 5.39987 14.3106 5.28135 14.5216 5.07037C14.7325 4.8594 14.8511 4.57326 14.8511 4.2749C14.8511 3.97654 14.7325 3.69039 14.5216 3.47942C14.3106 3.26845 14.0244 3.14992 13.7261 3.14992Z" fill="white"/>
</svg>
