<svg width="181" height="98" viewBox="0 0 181 98" fill="none" xmlns="http://www.w3.org/2000/svg">
<g filter="url(#filter0_d_426_258)">
<rect x="30" y="26" width="121" height="38" rx="10" fill="white"/>
<path opacity="0.9" d="M57.1833 42.4H61.0793V43.096L60.2873 44.808H61.0793V45.592H59.9193L58.7993 48H57.8313L58.9753 45.592H57.1833V44.808H59.3513L60.1193 43.192H57.1833V42.4ZM65.0709 48H64.1829V42.4H65.0709V48ZM68.3071 48H67.4271V43.192H65.6191V42.4H70.1151V43.192H68.3071V48ZM73.5298 47.472C73.1138 47.0667 72.9058 46.5627 72.9058 45.96C72.9058 45.3573 73.1138 44.8533 73.5298 44.448C73.9458 44.0373 74.4604 43.832 75.0738 43.832C75.5164 43.832 75.9111 43.9467 76.2578 44.176C76.6098 44.4053 76.8684 44.72 77.0338 45.12L76.2578 45.384C76.1511 45.144 75.9938 44.9547 75.7858 44.816C75.5778 44.6773 75.3404 44.608 75.0738 44.608C74.7058 44.608 74.3964 44.7387 74.1458 45C73.8951 45.256 73.7697 45.576 73.7697 45.96C73.7697 46.344 73.8951 46.664 74.1458 46.92C74.3964 47.176 74.7058 47.304 75.0738 47.304C75.3404 47.304 75.5778 47.2373 75.7858 47.104C75.9991 46.9653 76.1564 46.7733 76.2578 46.528L77.0338 46.792C76.8684 47.192 76.6098 47.5067 76.2578 47.736C75.9111 47.9653 75.5164 48.08 75.0738 48.08C74.4604 48.08 73.9458 47.8773 73.5298 47.472ZM78.2016 47.472C77.7856 47.0667 77.5776 46.5627 77.5776 45.96C77.5776 45.3573 77.7856 44.8533 78.2016 44.448C78.6176 44.0373 79.1323 43.832 79.7456 43.832C80.359 43.832 80.8736 44.0373 81.2896 44.448C81.7056 44.8533 81.9136 45.3573 81.9136 45.96C81.9136 46.5627 81.7056 47.0667 81.2896 47.472C80.8736 47.8773 80.359 48.08 79.7456 48.08C79.1323 48.08 78.6176 47.8773 78.2016 47.472ZM78.8176 45C78.567 45.256 78.4416 45.576 78.4416 45.96C78.4416 46.344 78.567 46.664 78.8176 46.92C79.0683 47.176 79.3776 47.304 79.7456 47.304C80.119 47.304 80.4283 47.176 80.6736 46.92C80.9243 46.664 81.0496 46.344 81.0496 45.96C81.0496 45.5707 80.9243 45.248 80.6736 44.992C80.4283 44.736 80.119 44.608 79.7456 44.608C79.3776 44.608 79.0683 44.7387 78.8176 45ZM82.6195 46.304V43.912H83.4595V46.304C83.4595 46.6027 83.5555 46.8453 83.7475 47.032C83.9395 47.2133 84.1848 47.304 84.4835 47.304C84.7768 47.304 85.0195 47.2133 85.2115 47.032C85.4035 46.8453 85.4995 46.6027 85.4995 46.304V43.912H86.3395V46.304C86.3395 46.8267 86.1635 47.2533 85.8115 47.584C85.4648 47.9147 85.0222 48.08 84.4835 48.08C83.9395 48.08 83.4915 47.9147 83.1395 47.584C82.7928 47.2533 82.6195 46.8267 82.6195 46.304ZM88.0933 43.912V44.496C88.2746 44.2453 88.5066 44.0613 88.7893 43.944C89.0719 43.8267 89.3733 43.8053 89.6933 43.88V44.68C89.2506 44.5573 88.8719 44.5973 88.5573 44.8C88.2479 44.9973 88.0933 45.2933 88.0933 45.688V48H87.2533V43.912H88.0933ZM89.9351 46.92L90.7751 46.744C90.8498 47.1813 91.1485 47.4 91.6711 47.4C91.9378 47.4 92.1511 47.3493 92.3111 47.248C92.4765 47.1413 92.5591 47.008 92.5591 46.848C92.5591 46.6773 92.4738 46.5493 92.3031 46.464C92.1325 46.3733 91.9245 46.3093 91.6791 46.272C91.4338 46.2293 91.1858 46.1787 90.9351 46.12C90.6898 46.0613 90.4818 45.9467 90.3111 45.776C90.1405 45.6 90.0551 45.3653 90.0551 45.072C90.0551 44.7147 90.2071 44.4187 90.5111 44.184C90.8205 43.9493 91.2071 43.832 91.6711 43.832C92.1351 43.832 92.5138 43.936 92.8071 44.144C93.1058 44.352 93.2845 44.6347 93.3431 44.992L92.5031 45.168C92.4391 44.7307 92.1618 44.512 91.6711 44.512C91.4471 44.512 91.2631 44.56 91.1191 44.656C90.9751 44.752 90.9031 44.8773 90.9031 45.032C90.9031 45.1707 90.9645 45.2827 91.0871 45.368C91.2098 45.4533 91.3645 45.5093 91.5511 45.536C91.7378 45.5627 91.9378 45.6027 92.1511 45.656C92.3698 45.7093 92.5725 45.7707 92.7591 45.84C92.9458 45.904 93.1005 46.0213 93.2231 46.192C93.3458 46.3627 93.4071 46.576 93.4071 46.832C93.4071 47.1893 93.2391 47.488 92.9031 47.728C92.5725 47.9627 92.1618 48.08 91.6711 48.08C91.1858 48.08 90.7911 47.976 90.4871 47.768C90.1831 47.56 89.9991 47.2773 89.9351 46.92ZM96.0806 43.832C96.7366 43.832 97.27 44.0667 97.6806 44.536C98.0913 45.0053 98.2593 45.5733 98.1846 46.24H94.8006C94.8593 46.5707 95.0113 46.84 95.2566 47.048C95.502 47.2507 95.798 47.352 96.1446 47.352C96.4113 47.352 96.6486 47.288 96.8566 47.16C97.07 47.0267 97.2353 46.848 97.3526 46.624L98.0566 46.936C97.8753 47.2827 97.6166 47.56 97.2806 47.768C96.9446 47.976 96.558 48.08 96.1206 48.08C95.5073 48.08 94.9926 47.8773 94.5766 47.472C94.1606 47.0667 93.9526 46.5627 93.9526 45.96C93.9526 45.3573 94.1553 44.8533 94.5606 44.448C94.9713 44.0373 95.478 43.832 96.0806 43.832ZM96.0806 44.56C95.7713 44.56 95.502 44.656 95.2726 44.848C95.0486 45.0347 94.8993 45.28 94.8246 45.584H97.3366C97.2673 45.28 97.118 45.0347 96.8886 44.848C96.6646 44.656 96.3953 44.56 96.0806 44.56ZM98.7554 46.92L99.5954 46.744C99.6701 47.1813 99.9688 47.4 100.491 47.4C100.758 47.4 100.971 47.3493 101.131 47.248C101.297 47.1413 101.379 47.008 101.379 46.848C101.379 46.6773 101.294 46.5493 101.123 46.464C100.953 46.3733 100.745 46.3093 100.499 46.272C100.254 46.2293 100.006 46.1787 99.7554 46.12C99.5101 46.0613 99.3021 45.9467 99.1314 45.776C98.9608 45.6 98.8754 45.3653 98.8754 45.072C98.8754 44.7147 99.0274 44.4187 99.3314 44.184C99.6408 43.9493 100.027 43.832 100.491 43.832C100.955 43.832 101.334 43.936 101.627 44.144C101.926 44.352 102.105 44.6347 102.163 44.992L101.323 45.168C101.259 44.7307 100.982 44.512 100.491 44.512C100.267 44.512 100.083 44.56 99.9394 44.656C99.7954 44.752 99.7234 44.8773 99.7234 45.032C99.7234 45.1707 99.7848 45.2827 99.9074 45.368C100.03 45.4533 100.185 45.5093 100.371 45.536C100.558 45.5627 100.758 45.6027 100.971 45.656C101.19 45.7093 101.393 45.7707 101.579 45.84C101.766 45.904 101.921 46.0213 102.043 46.192C102.166 46.3627 102.227 46.576 102.227 46.832C102.227 47.1893 102.059 47.488 101.723 47.728C101.393 47.9627 100.982 48.08 100.491 48.08C100.006 48.08 99.6114 47.976 99.3074 47.768C99.0034 47.56 98.8194 47.2773 98.7554 46.92ZM107.011 43.832C107.502 43.832 107.902 43.96 108.211 44.216C108.521 44.472 108.675 44.84 108.675 45.32V48H107.835V47.392C107.499 47.8507 107.025 48.08 106.411 48.08C106.022 48.08 105.705 47.976 105.459 47.768C105.214 47.56 105.091 47.2827 105.091 46.936C105.091 46.536 105.233 46.2373 105.515 46.04C105.798 45.8373 106.158 45.712 106.595 45.664L107.387 45.584C107.686 45.5573 107.835 45.424 107.835 45.184C107.835 44.9867 107.758 44.8293 107.603 44.712C107.454 44.5947 107.257 44.536 107.011 44.536C106.761 44.536 106.547 44.6 106.371 44.728C106.201 44.856 106.091 45.0427 106.043 45.288L105.211 45.088C105.286 44.704 105.486 44.4 105.811 44.176C106.137 43.9467 106.537 43.832 107.011 43.832ZM106.595 47.4C106.942 47.4 107.235 47.2853 107.475 47.056C107.715 46.8213 107.835 46.5493 107.835 46.24V46.08C107.766 46.144 107.611 46.1893 107.371 46.216L106.595 46.312C106.393 46.3387 106.23 46.4 106.107 46.496C105.99 46.5867 105.931 46.712 105.931 46.872C105.931 47.032 105.99 47.16 106.107 47.256C106.23 47.352 106.393 47.4 106.595 47.4ZM111.16 47.176L112.424 43.912H113.272L111.6 48H110.656L108.984 43.912H109.896L111.16 47.176ZM115.3 43.832C115.791 43.832 116.191 43.96 116.5 44.216C116.81 44.472 116.964 44.84 116.964 45.32V48H116.124V47.392C115.788 47.8507 115.314 48.08 114.7 48.08C114.311 48.08 113.994 47.976 113.748 47.768C113.503 47.56 113.38 47.2827 113.38 46.936C113.38 46.536 113.522 46.2373 113.804 46.04C114.087 45.8373 114.447 45.712 114.884 45.664L115.676 45.584C115.975 45.5573 116.124 45.424 116.124 45.184C116.124 44.9867 116.047 44.8293 115.892 44.712C115.743 44.5947 115.546 44.536 115.3 44.536C115.05 44.536 114.836 44.6 114.66 44.728C114.49 44.856 114.38 45.0427 114.332 45.288L113.5 45.088C113.575 44.704 113.775 44.4 114.1 44.176C114.426 43.9467 114.826 43.832 115.3 43.832ZM114.884 47.4C115.231 47.4 115.524 47.2853 115.764 47.056C116.004 46.8213 116.124 46.5493 116.124 46.24V46.08C116.055 46.144 115.9 46.1893 115.66 46.216L114.884 46.312C114.682 46.3387 114.519 46.4 114.396 46.496C114.279 46.5867 114.22 46.712 114.22 46.872C114.22 47.032 114.279 47.16 114.396 47.256C114.519 47.352 114.682 47.4 114.884 47.4ZM117.918 43.104C117.817 43.0027 117.766 42.88 117.766 42.736C117.766 42.592 117.817 42.4693 117.918 42.368C118.025 42.2667 118.15 42.216 118.294 42.216C118.438 42.216 118.561 42.2667 118.662 42.368C118.764 42.4693 118.814 42.592 118.814 42.736C118.814 42.88 118.764 43.0027 118.662 43.104C118.561 43.2053 118.438 43.256 118.294 43.256C118.15 43.256 118.025 43.2053 117.918 43.104ZM118.71 48H117.87V43.912H118.71V48ZM120.492 48H119.652V42.08H120.492V48ZM123.113 43.832C123.604 43.832 124.004 43.96 124.313 44.216C124.622 44.472 124.777 44.84 124.777 45.32V48H123.937V47.392C123.601 47.8507 123.126 48.08 122.513 48.08C122.124 48.08 121.806 47.976 121.561 47.768C121.316 47.56 121.193 47.2827 121.193 46.936C121.193 46.536 121.334 46.2373 121.617 46.04C121.9 45.8373 122.26 45.712 122.697 45.664L123.489 45.584C123.788 45.5573 123.937 45.424 123.937 45.184C123.937 44.9867 123.86 44.8293 123.705 44.712C123.556 44.5947 123.358 44.536 123.113 44.536C122.862 44.536 122.649 44.6 122.473 44.728C122.302 44.856 122.193 45.0427 122.145 45.288L121.313 45.088C121.388 44.704 121.588 44.4 121.913 44.176C122.238 43.9467 122.638 43.832 123.113 43.832ZM122.697 47.4C123.044 47.4 123.337 47.2853 123.577 47.056C123.817 46.8213 123.937 46.5493 123.937 46.24V46.08C123.868 46.144 123.713 46.1893 123.473 46.216L122.697 46.312C122.494 46.3387 122.332 46.4 122.209 46.496C122.092 46.5867 122.033 46.712 122.033 46.872C122.033 47.032 122.092 47.16 122.209 47.256C122.332 47.352 122.494 47.4 122.697 47.4ZM127.979 43.832C128.55 43.832 129.027 44.0373 129.411 44.448C129.8 44.8533 129.995 45.3573 129.995 45.96C129.995 46.5627 129.8 47.0667 129.411 47.472C129.027 47.8773 128.55 48.08 127.979 48.08C127.371 48.08 126.886 47.8507 126.523 47.392V48H125.683V42.08H126.523V44.52C126.886 44.0613 127.371 43.832 127.979 43.832ZM127.827 47.304C128.195 47.304 128.502 47.176 128.747 46.92C128.998 46.664 129.123 46.344 129.123 45.96C129.123 45.5707 128.998 45.248 128.747 44.992C128.502 44.736 128.195 44.608 127.827 44.608C127.454 44.608 127.142 44.736 126.891 44.992C126.646 45.248 126.523 45.5707 126.523 45.96C126.523 46.344 126.646 46.664 126.891 46.92C127.142 47.176 127.454 47.304 127.827 47.304ZM131.617 48H130.777V42.08H131.617V48ZM134.526 43.832C135.182 43.832 135.715 44.0667 136.126 44.536C136.537 45.0053 136.705 45.5733 136.63 46.24H133.246C133.305 46.5707 133.457 46.84 133.702 47.048C133.947 47.2507 134.243 47.352 134.59 47.352C134.857 47.352 135.094 47.288 135.302 47.16C135.515 47.0267 135.681 46.848 135.798 46.624L136.502 46.936C136.321 47.2827 136.062 47.56 135.726 47.768C135.39 47.976 135.003 48.08 134.566 48.08C133.953 48.08 133.438 47.8773 133.022 47.472C132.606 47.0667 132.398 46.5627 132.398 45.96C132.398 45.3573 132.601 44.8533 133.006 44.448C133.417 44.0373 133.923 43.832 134.526 43.832ZM134.526 44.56C134.217 44.56 133.947 44.656 133.718 44.848C133.494 45.0347 133.345 45.28 133.27 45.584H135.782C135.713 45.28 135.563 45.0347 135.334 44.848C135.11 44.656 134.841 44.56 134.526 44.56Z" fill="#2C2B31"/>
<circle cx="47.5" cy="44.5" r="3.5" fill="#917EFC"/>
</g>
<defs>
<filter id="filter0_d_426_258" x="0" y="0" width="181" height="98" filterUnits="userSpaceOnUse" color-interpolation-filters="sRGB">
<feFlood flood-opacity="0" result="BackgroundImageFix"/>
<feColorMatrix in="SourceAlpha" type="matrix" values="0 0 0 0 0 0 0 0 0 0 0 0 0 0 0 0 0 0 127 0" result="hardAlpha"/>
<feOffset dy="4"/>
<feGaussianBlur stdDeviation="15"/>
<feComposite in2="hardAlpha" operator="out"/>
<feColorMatrix type="matrix" values="0 0 0 0 0 0 0 0 0 0 0 0 0 0 0 0 0 0 0.15 0"/>
<feBlend mode="normal" in2="BackgroundImageFix" result="effect1_dropShadow_426_258"/>
<feBlend mode="normal" in="SourceGraphic" in2="effect1_dropShadow_426_258" result="shape"/>
</filter>
</defs>
</svg>
