<svg width="18" height="18" viewBox="0 0 18 18" fill="none" xmlns="http://www.w3.org/2000/svg">
<path fill-rule="evenodd" clip-rule="evenodd" d="M9.07089 17.5412L9.06049 17.5429L8.99335 17.5718L8.97444 17.5751L8.9612 17.5718L8.89407 17.5429C8.88398 17.5401 8.87642 17.5415 8.87137 17.547L8.86759 17.5553L8.85152 17.9084L8.85624 17.9249L8.8657 17.9357L8.96404 17.9967L8.97822 18L8.98957 17.9967L9.08791 17.9357L9.09925 17.9225L9.10304 17.9084L9.08696 17.5561C9.08444 17.5473 9.07908 17.5423 9.07089 17.5412ZM9.32146 17.448L9.30917 17.4497L9.13424 17.5264L9.12478 17.5346L9.12195 17.5437L9.13897 17.8985L9.1437 17.9084L9.15126 17.9142L9.34132 17.991C9.35329 17.9937 9.36244 17.9915 9.36874 17.9844L9.37252 17.9728L9.34037 17.4662C9.33722 17.4563 9.33092 17.4502 9.32146 17.448ZM8.64538 17.4497C8.64122 17.4475 8.63624 17.4467 8.63148 17.4477C8.62672 17.4486 8.62256 17.4511 8.61985 17.4546L8.61418 17.4662L8.58203 17.9728C8.58266 17.9827 8.58802 17.9893 8.59811 17.9926L8.61229 17.991L8.80235 17.9142L8.8118 17.9076L8.81558 17.8985L8.83166 17.5437L8.82882 17.5338L8.81937 17.5256L8.64538 17.4497Z" fill="white"/>
<path fill-rule="evenodd" clip-rule="evenodd" d="M0 1.65032C0 1.21263 0.199243 0.792861 0.553898 0.483366C0.908552 0.173872 1.38957 0 1.89112 0H3.78225C4.12643 0 4.44982 0.0800403 4.72781 0.221142C5.01529 0.0762821 5.34141 1.27465e-05 5.67337 0H7.5645C8.25192 0 8.85425 0.320161 9.18519 0.799578C9.38376 0.660952 9.61637 0.555331 9.87735 0.49427L11.7042 0.067663C11.9441 0.0115051 12.1943 -0.00286106 12.4406 0.0253851C12.6868 0.0536312 12.9243 0.123936 13.1394 0.232285C13.3546 0.340633 13.5431 0.484903 13.6944 0.656854C13.8456 0.828805 13.9565 1.02507 14.0208 1.23444L17.9354 13.9873C17.9998 14.1966 18.0162 14.415 17.9839 14.6299C17.9515 14.8448 17.8709 15.052 17.7468 15.2398C17.6226 15.4275 17.4573 15.592 17.2603 15.724C17.0632 15.856 16.8383 15.9528 16.5984 16.0089L14.7716 16.4355C14.5317 16.4917 14.2814 16.506 14.0352 16.4778C13.7889 16.4495 13.5514 16.3792 13.3363 16.2709C13.1212 16.1625 12.9326 16.0183 12.7814 15.8463C12.6302 15.6744 12.5192 15.4781 12.4549 15.2687L9.45562 5.49803V14.8528C9.45562 15.2905 9.25638 15.7103 8.90173 16.0198C8.54707 16.3293 8.06606 16.5032 7.5645 16.5032H5.67337C5.34141 16.5032 5.01529 16.4269 4.72781 16.282C4.44033 16.4269 4.11422 16.5032 3.78225 16.5032H1.89112C1.38957 16.5032 0.908552 16.3293 0.553898 16.0198C0.199243 15.7103 0 15.2905 0 14.8528V1.65032ZM1.89112 1.65032H3.78225V14.8528H1.89112V1.65032ZM7.5645 14.8528H5.67337V1.65032H7.5645V14.8528ZM10.3671 2.08848L12.193 1.66187L16.1095 14.4147L14.2827 14.8413L10.3671 2.08848Z" fill="white"/>
</svg>
