<svg width="53" height="53" viewBox="0 0 53 53" fill="none" xmlns="http://www.w3.org/2000/svg">
<path fill-rule="evenodd" clip-rule="evenodd" d="M52.5 26.25C52.5 33.2119 49.7344 39.8887 44.8116 44.8116C39.8887 49.7344 33.2119 52.5 26.25 52.5C19.2881 52.5 12.6113 49.7344 7.68845 44.8116C2.76562 39.8887 0 33.2119 0 26.25C0 19.2881 2.76562 12.6113 7.68845 7.68845C12.6113 2.76562 19.2881 0 26.25 0C33.2119 0 39.8887 2.76562 44.8116 7.68845C49.7344 12.6113 52.5 19.2881 52.5 26.25ZM33.75 18.75C33.75 20.7391 32.9598 22.6468 31.5533 24.0533C30.1468 25.4598 28.2391 26.25 26.25 26.25C24.2609 26.25 22.3532 25.4598 20.9467 24.0533C19.5402 22.6468 18.75 20.7391 18.75 18.75C18.75 16.7609 19.5402 14.8532 20.9467 13.4467C22.3532 12.0402 24.2609 11.25 26.25 11.25C28.2391 11.25 30.1468 12.0402 31.5533 13.4467C32.9598 14.8532 33.75 16.7609 33.75 18.75ZM26.25 30C23.0039 29.9988 19.8132 30.8403 16.9899 32.4422C14.1667 34.0442 11.8077 36.3516 10.1437 39.1387C12.0747 41.5554 14.5255 43.5059 17.3139 44.8453C20.1023 46.1846 23.1566 46.8784 26.25 46.875C29.3427 46.8778 32.3964 46.1838 35.1841 44.8444C37.9718 43.5051 40.4219 41.5549 42.3525 39.1387C40.6889 36.3521 38.3305 34.0451 35.5079 32.4432C32.6854 30.8413 29.4954 29.9994 26.25 30Z" fill="#DC3F6F"/>
<path d="M33.75 18.75C33.75 20.7391 32.9598 22.6468 31.5533 24.0533C30.1468 25.4598 28.2391 26.25 26.25 26.25C24.2609 26.25 22.3532 25.4598 20.9467 24.0533C19.5402 22.6468 18.75 20.7391 18.75 18.75C18.75 16.7609 19.5402 14.8532 20.9467 13.4467C22.3532 12.0402 24.2609 11.25 26.25 11.25C28.2391 11.25 30.1468 12.0402 31.5533 13.4467C32.9598 14.8532 33.75 16.7609 33.75 18.75Z" fill="white"/>
<path d="M26.25 30C23.0039 29.9988 19.8132 30.8403 16.9899 32.4422C14.1667 34.0442 11.8077 36.3516 10.1437 39.1387C12.0747 41.5554 14.5255 43.5059 17.3139 44.8453C20.1023 46.1846 23.1566 46.8784 26.25 46.875C29.3427 46.8778 32.3964 46.1838 35.1841 44.8444C37.9718 43.5051 40.4219 41.5549 42.3525 39.1387C40.6889 36.3521 38.3305 34.0451 35.5079 32.4432C32.6854 30.8413 29.4954 29.9994 26.25 30Z" fill="white"/>
</svg>
