<svg width="35" height="35" viewBox="0 0 35 35" fill="none" xmlns="http://www.w3.org/2000/svg">
<path d="M15.5751 4.33036V11.2447C15.5752 11.8172 15.4621 12.3841 15.2425 12.9128C15.0228 13.4415 14.701 13.9216 14.2953 14.3256C13.8896 14.7296 13.4082 15.0496 12.8786 15.267C12.349 15.4845 11.7817 15.5952 11.2091 15.5929H4.33046C3.75949 15.5963 3.19371 15.4845 2.66702 15.264C2.14033 15.0435 1.66358 14.719 1.26534 14.3098C0.861025 13.9088 0.540841 13.4312 0.323574 12.9049C0.106306 12.3785 -0.00367056 11.8141 9.34508e-05 11.2447V4.34818C8.37917e-05 3.19806 0.455747 2.09477 1.26734 1.27984C2.07893 0.464905 3.18034 0.00471364 4.33046 0H11.227C11.7973 0.000548005 12.3619 0.114234 12.8881 0.334475C13.4142 0.554716 13.8914 0.877137 14.2921 1.28307C14.6975 1.68044 15.0197 2.15453 15.24 2.67771C15.4603 3.2009 15.5742 3.7627 15.5751 4.33036ZM34.7321 4.34818V11.2447C34.7229 12.392 34.2642 13.4899 33.4546 14.3028C32.645 15.1158 31.549 15.5789 30.4017 15.5929H23.4874C22.3348 15.5858 21.2298 15.1323 20.4045 14.3276C20.0012 13.9222 19.6819 13.4412 19.4648 12.9122C19.2477 12.3832 19.1371 11.8165 19.1392 11.2447V4.34818C19.1378 3.77752 19.2506 3.21234 19.4709 2.68593C19.6913 2.15952 20.0148 1.68254 20.4223 1.28307C20.823 0.877137 21.3002 0.554716 21.8263 0.334475C22.3525 0.114234 22.9171 0.000548005 23.4874 0H30.3839C31.5343 0.00931486 32.6348 0.470416 33.4483 1.28385C34.2617 2.09728 34.7228 3.19785 34.7321 4.34818ZM34.7321 23.5051V30.4016C34.7229 31.5489 34.2642 32.6469 33.4546 33.4598C32.645 34.2727 31.549 34.7359 30.4017 34.7498H23.4874C22.3275 34.7616 21.2086 34.3205 20.3688 33.5202C19.964 33.116 19.6436 32.6352 19.4264 32.1059C19.2092 31.5766 19.0994 31.0094 19.1036 30.4373V23.5408C19.1022 22.9701 19.2149 22.4049 19.4353 21.8785C19.6556 21.3521 19.9791 20.8751 20.3867 20.4757C20.7873 20.0697 21.2646 19.7473 21.7907 19.5271C22.3168 19.3068 22.8814 19.1931 23.4518 19.1926H30.3483C31.4986 19.2019 32.5992 19.663 33.4126 20.4764C34.226 21.2899 34.6872 22.3905 34.6965 23.5408L34.7321 23.5051ZM15.5751 23.523V30.4195C15.5611 31.5698 15.0955 32.6685 14.2788 33.4786C13.462 34.2887 12.3595 34.7452 11.2091 34.7498H4.33046C3.76113 34.7522 3.19696 34.6418 2.67051 34.425C2.14407 34.2082 1.66575 33.8893 1.26317 33.4868C0.860589 33.0842 0.541707 32.6059 0.324921 32.0794C0.108135 31.553 -0.00226406 30.9888 9.34508e-05 30.4195V23.523C0.00468436 22.3726 0.461272 21.2701 1.27137 20.4534C2.08147 19.6366 3.18016 19.171 4.33046 19.157H11.227C12.3821 19.1688 13.4875 19.6288 14.3099 20.44C15.1227 21.26 15.5776 22.3685 15.5751 23.523Z" fill="white"/>
</svg>
