<svg width="294" height="182" viewBox="0 0 294 182" fill="none" xmlns="http://www.w3.org/2000/svg">
<rect width="294" height="182" fill="#F65F8F"/>
<path d="M140.88 47.4241V70.4553C140.88 72.3623 140.503 74.2505 139.772 76.0116C139.04 77.7727 137.968 79.372 136.617 80.7177C135.265 82.0634 133.662 83.129 131.898 83.8534C130.134 84.5777 128.244 84.9466 126.337 84.9388H103.424C101.523 84.9503 99.638 84.5777 97.8837 83.8433C96.1293 83.109 94.5413 82.0279 93.2148 80.665C91.868 79.3294 90.8015 77.7384 90.0778 75.9852C89.3541 74.232 88.9878 72.3519 89.0003 70.4553V47.4835C89.0003 43.6525 90.5181 39.9775 93.2214 37.263C95.9248 34.5486 99.5935 33.0157 103.424 33H126.396C128.296 33.0018 130.177 33.3805 131.929 34.1141C133.682 34.8477 135.271 35.9217 136.606 37.2738C137.956 38.5974 139.03 40.1766 139.763 41.9193C140.497 43.662 140.877 45.5333 140.88 47.4241ZM204.69 47.4835V70.4553C204.659 74.2768 203.132 77.9339 200.435 80.6417C197.738 83.3496 194.087 84.8923 190.266 84.9388H167.235C163.396 84.9153 159.715 83.4047 156.966 80.7243C155.623 79.3738 154.559 77.7717 153.836 76.0096C153.113 74.2475 152.744 72.36 152.751 70.4553V47.4835C152.747 45.5827 153.122 43.7001 153.856 41.9466C154.59 40.1932 155.668 38.6044 157.025 37.2738C158.36 35.9217 159.949 34.8477 161.702 34.1141C163.454 33.3805 165.335 33.0018 167.235 33H190.207C194.038 33.031 197.704 34.5669 200.414 37.2764C203.123 39.9859 204.659 43.6518 204.69 47.4835ZM204.69 111.294V134.266C204.659 138.087 203.132 141.744 200.435 144.452C197.738 147.16 194.087 148.703 190.266 148.749H167.235C163.371 148.788 159.645 147.319 156.847 144.654C155.499 143.307 154.432 141.706 153.708 139.943C152.984 138.18 152.619 136.29 152.633 134.385V111.413C152.628 109.512 153.004 107.629 153.738 105.876C154.472 104.122 155.549 102.534 156.907 101.203C158.241 99.8509 159.831 98.7769 161.583 98.0433C163.336 97.3097 165.216 96.9311 167.116 96.9292H190.088C193.92 96.9603 197.586 98.4961 200.295 101.206C203.005 103.915 204.541 107.581 204.572 111.413L204.69 111.294ZM140.88 111.353V134.325C140.833 138.157 139.282 141.816 136.562 144.515C133.841 147.213 130.169 148.734 126.337 148.749H103.424C101.528 148.757 99.6489 148.389 97.8953 147.667C96.1417 146.945 94.5485 145.883 93.2075 144.542C91.8666 143.201 90.8044 141.608 90.0823 139.854C89.3602 138.101 88.9925 136.222 89.0003 134.325V111.353C89.0156 107.522 90.5365 103.849 93.2349 101.129C95.9332 98.4081 99.5929 96.8572 103.424 96.8105H126.396C130.244 96.8499 133.926 98.3822 136.665 101.084C139.373 103.815 140.888 107.508 140.88 111.353Z" fill="white"/>
</svg>
