<svg width="27" height="22" viewBox="0 0 27 22" fill="none" xmlns="http://www.w3.org/2000/svg">
<path d="M2.2352 3.70854C2.2352 2.74187 2.58721 1.8148 3.21378 1.13126C3.84035 0.447726 4.69017 0.0637207 5.57628 0.0637207H21.168C22.0541 0.0637207 22.9039 0.447726 23.5305 1.13126C24.1571 1.8148 24.5091 2.74187 24.5091 3.70854V13.428C24.5091 14.3947 24.1571 15.3218 23.5305 16.0053C22.9039 16.6889 22.0541 17.0729 21.168 17.0729H5.57628C4.69017 17.0729 3.84035 16.6889 3.21378 16.0053C2.58721 15.3218 2.2352 14.3947 2.2352 13.428V3.70854ZM1.12151 19.5027C0.826136 19.5027 0.542864 19.6307 0.334006 19.8586C0.125148 20.0864 0.0078125 20.3955 0.0078125 20.7177C0.0078125 21.0399 0.125148 21.3489 0.334006 21.5768C0.542864 21.8046 0.826136 21.9326 1.12151 21.9326H25.6228C25.9181 21.9326 26.2014 21.8046 26.4103 21.5768C26.6191 21.3489 26.7365 21.0399 26.7365 20.7177C26.7365 20.3955 26.6191 20.0864 26.4103 19.8586C26.2014 19.6307 25.9181 19.5027 25.6228 19.5027H1.12151Z" fill="white"/>
</svg>
