<svg width="294" height="182" viewBox="0 0 294 182" fill="none" xmlns="http://www.w3.org/2000/svg">
<rect width="294" height="182" fill="#50CAE9"/>
<path d="M114.254 73.1486L92.8286 91.0007L114.254 108.853C114.964 109.435 115.552 110.152 115.984 110.963C116.416 111.774 116.684 112.662 116.771 113.577C116.858 114.491 116.763 115.414 116.491 116.292C116.22 117.169 115.778 117.985 115.19 118.691C114.602 119.396 113.88 119.979 113.066 120.404C112.251 120.83 111.361 121.09 110.446 121.17C109.531 121.249 108.609 121.147 107.733 120.869C106.858 120.59 106.046 120.142 105.345 119.548L77.5052 96.3483C76.7211 95.6951 76.0903 94.8775 75.6573 93.9534C75.2244 93.0293 75 92.0212 75 91.0007C75 89.9802 75.2244 88.9722 75.6573 88.0481C76.0903 87.124 76.7211 86.3064 77.5052 85.6532L105.345 62.4535C106.765 61.2896 108.588 60.7341 110.416 60.908C112.244 61.082 113.929 61.9713 115.104 63.3822C116.279 64.7931 116.849 66.6112 116.69 68.4405C116.531 70.2699 115.655 71.9621 114.254 73.1486ZM216.332 85.6532L188.493 62.4535C187.791 61.8599 186.98 61.411 186.104 61.1327C185.229 60.8543 184.307 60.7521 183.392 60.8318C182.476 60.9115 181.586 61.1716 180.772 61.5971C179.958 62.0226 179.236 62.6051 178.648 63.311C178.06 64.0168 177.617 64.8321 177.346 65.7098C177.075 66.5875 176.98 67.5102 177.067 68.4247C177.154 69.3393 177.421 70.2275 177.853 71.0383C178.285 71.8491 178.873 72.5663 179.584 73.1486L201.009 91.0007L179.584 108.853C178.873 109.435 178.285 110.152 177.853 110.963C177.421 111.774 177.154 112.662 177.067 113.577C176.98 114.491 177.075 115.414 177.346 116.292C177.617 117.169 178.06 117.985 178.648 118.691C179.236 119.396 179.958 119.979 180.772 120.404C181.586 120.83 182.476 121.09 183.392 121.17C184.307 121.249 185.229 121.147 186.104 120.869C186.98 120.59 187.791 120.142 188.493 119.548L216.332 96.3483C217.116 95.6951 217.747 94.8775 218.18 93.9534C218.613 93.0293 218.837 92.0212 218.837 91.0007C218.837 89.9802 218.613 88.9722 218.18 88.0481C217.747 87.124 217.116 86.3064 216.332 85.6532ZM167.856 33.4191C166.997 33.1067 166.085 32.9665 165.172 33.0067C164.258 33.0469 163.362 33.2667 162.534 33.6534C161.705 34.0401 160.961 34.5862 160.344 35.2605C159.727 35.9349 159.248 36.7242 158.936 37.5834L121.817 139.662C121.187 141.397 121.273 143.31 122.054 144.981C122.834 146.653 124.247 147.946 125.981 148.577C126.742 148.858 127.547 149.001 128.359 149C129.788 149 131.182 148.561 132.353 147.741C133.523 146.921 134.413 145.761 134.901 144.418L172.021 42.3394C172.333 41.4802 172.473 40.568 172.433 39.6547C172.393 38.7414 172.173 37.8449 171.787 37.0166C171.4 36.1882 170.854 35.4441 170.179 34.8269C169.505 34.2096 168.716 33.7312 167.856 33.4191Z" fill="white"/>
</svg>
