<svg width="44" height="36" viewBox="0 0 44 36" fill="none" xmlns="http://www.w3.org/2000/svg">
<path d="M12.0077 12.2815L5.45379 17.7425L12.0077 23.2035C12.225 23.3816 12.405 23.601 12.5371 23.849C12.6693 24.097 12.751 24.3687 12.7776 24.6485C12.8043 24.9283 12.7752 25.2105 12.6922 25.479C12.6092 25.7475 12.4739 25.9969 12.294 26.2128C12.1142 26.4287 11.8934 26.6069 11.6443 26.7371C11.3952 26.8672 11.1229 26.9468 10.8429 26.9712C10.563 26.9956 10.2809 26.9643 10.0131 26.8791C9.74531 26.794 9.497 26.6567 9.28252 26.4751L0.766349 19.3783C0.526497 19.1785 0.333517 18.9284 0.201083 18.6457C0.0686489 18.363 0 18.0546 0 17.7425C0 17.4303 0.0686489 17.122 0.201083 16.8393C0.333517 16.5566 0.526497 16.3065 0.766349 16.1067L9.28252 9.00986C9.71697 8.65381 10.2745 8.48388 10.8337 8.53709C11.3929 8.5903 11.9084 8.86234 12.2679 9.29393C12.6274 9.72552 12.8018 10.2817 12.753 10.8413C12.7043 11.4009 12.4364 11.9185 12.0077 12.2815ZM43.2336 16.1067L34.7175 9.00986C34.503 8.82828 34.2547 8.69095 33.9869 8.60581C33.7191 8.52066 33.437 8.48938 33.1571 8.51377C32.8771 8.53815 32.6048 8.61772 32.3557 8.74788C32.1066 8.87804 31.8858 9.05622 31.7059 9.27215C31.5261 9.48807 31.3908 9.73747 31.3078 10.006C31.2248 10.2744 31.1957 10.5567 31.2223 10.8365C31.249 11.1162 31.3307 11.3879 31.4629 11.6359C31.595 11.884 31.775 12.1034 31.9923 12.2815L38.5462 17.7425L31.9923 23.2035C31.775 23.3816 31.595 23.601 31.4629 23.849C31.3307 24.097 31.249 24.3687 31.2223 24.6485C31.1957 24.9283 31.2248 25.2105 31.3078 25.479C31.3908 25.7475 31.5261 25.9969 31.7059 26.2128C31.8858 26.4287 32.1066 26.6069 32.3557 26.7371C32.6048 26.8672 32.8771 26.9468 33.1571 26.9712C33.437 26.9956 33.7191 26.9643 33.9869 26.8791C34.2547 26.794 34.503 26.6567 34.7175 26.4751L43.2336 19.3783C43.4735 19.1785 43.6665 18.9284 43.7989 18.6457C43.9313 18.363 44 18.0546 44 17.7425C44 17.4303 43.9313 17.122 43.7989 16.8393C43.6665 16.5566 43.4735 16.3065 43.2336 16.1067ZM28.4049 0.128201C28.1421 0.032626 27.863 -0.0102374 27.5836 0.0020594C27.3042 0.0143562 27.03 0.0815726 26.7766 0.199869C26.5232 0.318165 26.2956 0.485223 26.1068 0.691501C25.918 0.897779 25.7716 1.13924 25.6761 1.40208L14.3213 32.628C14.1288 33.1586 14.1548 33.7439 14.3937 34.2552C14.6326 34.7665 15.0647 35.1621 15.5951 35.355C15.828 35.4409 16.0743 35.4848 16.3226 35.4845C16.7597 35.4846 17.1862 35.3501 17.5443 35.0993C17.9023 34.8486 18.1745 34.4937 18.3239 34.0829L29.6787 2.85692C29.7743 2.59411 29.8172 2.31505 29.8049 2.03567C29.7926 1.75629 29.7254 1.48207 29.6071 1.22867C29.4888 0.975274 29.3217 0.747664 29.1154 0.558843C28.9092 0.370022 28.6677 0.223688 28.4049 0.128201Z" fill="white"/>
</svg>
