<svg width="294" height="182" viewBox="0 0 294 182" fill="none" xmlns="http://www.w3.org/2000/svg">
<rect width="294" height="182" fill="#FDA43C"/>
<path d="M147 33C114.955 33 89 58.955 89 91C89 123.045 114.955 149 147 149C179.045 149 205 123.045 205 91C205 58.955 179.045 33 147 33ZM147 48.7857C152.547 48.7729 158.042 49.8561 163.17 51.9731C168.297 54.09 172.956 57.199 176.878 61.1215C180.801 65.044 183.91 69.7028 186.027 74.8302C188.144 79.9576 189.227 85.4528 189.214 91C189.214 114.273 170.268 133.214 147 133.214C141.456 133.217 135.965 132.127 130.842 130.006C125.719 127.886 121.065 124.776 117.144 120.856C113.224 116.935 110.114 112.281 107.994 107.158C105.873 102.035 104.783 96.5444 104.786 91C104.783 85.4556 105.873 79.9651 107.994 74.8423C110.114 69.7194 113.224 65.0648 117.144 61.1443C121.065 57.2238 125.719 54.1144 130.842 51.9939C135.965 49.8733 141.456 48.7831 147 48.7857ZM179.388 67.3795L165.478 76.268C169.683 82.9332 170.268 90.1832 166.995 97.5492C163.255 106.433 154.366 114.031 144.308 117.656C148.828 117.098 153.197 115.67 157.174 113.451C166.995 107.955 172.612 98.598 173.076 87.0222V85.9685H186.754C185.942 79.0713 183.25 72.7542 179.388 67.3795ZM175.183 88.0758C174.361 99.7725 168.281 109.71 158.228 115.205C152.419 118.38 145.901 120.029 139.281 120C134.01 119.988 128.783 119.039 123.844 117.197C129.929 120.938 136.71 123.045 143.723 123.045H143.844C156.473 123.045 167.933 116.375 174.361 105.031L174.946 104.098L182.781 109.125C185.646 103.514 187.133 97.3004 187.117 91C187.117 90.0623 186.996 89.1295 186.996 88.0758H175.183ZM175.531 107.134C168.634 118.362 156.942 125.143 143.844 125.143C131.098 125.143 119.17 118.83 110.75 108.071C117.178 121.639 130.978 131.107 147 131.107C154.048 131.114 160.972 129.257 167.071 125.725C173.169 122.193 178.226 117.112 181.728 110.995L175.531 107.134Z" fill="white"/>
</svg>
