<svg width="35" height="35" viewBox="0 0 35 35" fill="none" xmlns="http://www.w3.org/2000/svg">
<path d="M17.5 0C7.83125 0 0 7.83125 0 17.5C0 27.1688 7.83125 35 17.5 35C27.1688 35 35 27.1688 35 17.5C35 7.83125 27.1688 0 17.5 0ZM17.5 4.76292C19.1737 4.75907 20.8317 5.0859 22.3788 5.72464C23.9259 6.36337 25.3315 7.30143 26.5151 8.48495C27.6986 9.66846 28.6366 11.0741 29.2754 12.6212C29.9141 14.1683 30.2409 15.8263 30.2371 17.5C30.2371 24.5219 24.5204 30.2371 17.5 30.2371C15.8271 30.2379 14.1705 29.9089 12.6248 29.2691C11.0791 28.6293 9.67471 27.6911 8.49181 26.5082C7.30891 25.3253 6.37074 23.9209 5.73091 22.3752C5.09108 20.8295 4.76215 19.1729 4.76292 17.5C4.76215 15.8271 5.09108 14.1705 5.73091 12.6248C6.37074 11.0791 7.30891 9.67471 8.49181 8.49181C9.67471 7.30891 11.0791 6.37074 12.6248 5.73091C14.1705 5.09108 15.8271 4.76215 17.5 4.76292ZM27.2723 10.3731L23.0752 13.055C24.344 15.066 24.5204 17.2535 23.5331 19.476C22.4044 22.1565 19.7225 24.449 16.6877 25.5427C18.0515 25.3743 19.3698 24.9435 20.5698 24.274C23.5331 22.6158 25.2277 19.7925 25.3677 16.2998V15.9819H29.4948C29.2498 13.9008 28.4375 11.9948 27.2723 10.3731ZM26.0035 16.6177C25.7556 20.1469 23.921 23.1452 20.8877 24.8033C19.1351 25.7611 17.1683 26.2588 15.171 26.25C13.5805 26.2464 12.0034 25.96 10.5131 25.4042C12.3492 26.5329 14.3952 27.1687 16.5112 27.1687H16.5477C20.3583 27.1687 23.816 25.1562 25.7556 21.7335L25.9321 21.4521L28.296 22.9688C29.1606 21.2757 29.609 19.401 29.6042 17.5C29.6042 17.2171 29.5677 16.9356 29.5677 16.6177H26.0035ZM26.1085 22.3679C24.0275 25.7556 20.4998 27.8017 16.5477 27.8017C12.7021 27.8017 9.10292 25.8971 6.5625 22.6508C8.50208 26.7444 12.6656 29.6013 17.5 29.6013C19.6264 29.6033 21.7156 29.0431 23.5558 27.9774C25.3959 26.9118 26.9216 25.3785 27.9781 23.5331L26.1085 22.3679Z" fill="white"/>
</svg>
