<svg width="28" height="30" viewBox="0 0 8 7" fill="none" xmlns="http://www.w3.org/2000/svg">
<path d="M7.17898 0.692383H0.613758C0.517024 0.692383 0.424253 0.731684 0.355852 0.801639C0.287451 0.871595 0.249023 0.966475 0.249023 1.06541V6.28774C0.249023 6.38668 0.287451 6.48156 0.355852 6.55151C0.424253 6.62147 0.517024 6.66077 0.613758 6.66077H7.17898C7.27572 6.66077 7.36849 6.62147 7.43689 6.55151C7.50529 6.48156 7.54372 6.38668 7.54372 6.28774V1.06541C7.54372 0.966475 7.50529 0.871595 7.43689 0.801639C7.36849 0.731684 7.27572 0.692383 7.17898 0.692383ZM6.81425 4.79565C6.52405 4.79565 6.24573 4.91355 6.04053 5.12342C5.83532 5.33328 5.72004 5.61792 5.72004 5.91472H2.0727C2.0727 5.61792 1.95741 5.33328 1.75221 5.12342C1.54701 4.91355 1.26869 4.79565 0.978493 4.79565V2.5575C1.26869 2.5575 1.54701 2.4396 1.75221 2.22973C1.95741 2.01987 2.0727 1.73523 2.0727 1.43843H5.72004C5.72004 1.73523 5.83532 2.01987 6.04053 2.22973C6.24573 2.4396 6.52405 2.5575 6.81425 2.5575V4.79565Z" fill="white"/>
<path d="M3.89644 2.18457C3.09183 2.18457 2.4375 2.85378 2.4375 3.67667C2.4375 4.49956 3.09183 5.16876 3.89644 5.16876C4.70104 5.16876 5.35538 4.49956 5.35538 3.67667C5.35538 2.85378 4.70104 2.18457 3.89644 2.18457ZM3.89644 4.42271C3.49414 4.42271 3.16697 4.08811 3.16697 3.67667C3.16697 3.26522 3.49414 2.93062 3.89644 2.93062C4.29874 2.93062 4.62591 3.26522 4.62591 3.67667C4.62591 4.08811 4.29874 4.42271 3.89644 4.42271Z" fill="white"/>
</svg>
