<svg width="30" height="28" viewBox="0 0 30 28" fill="none" xmlns="http://www.w3.org/2000/svg">
<path d="M19.0082 9.86024C22.576 16.1409 22.2123 23.1424 18.1955 25.4994C14.1787 27.8565 8.03069 24.6768 4.46283 18.3955C0.894965 12.1142 1.25866 5.11334 5.2755 2.7563C9.29233 0.399266 15.441 3.57963 19.0082 9.86024Z" stroke="white" stroke-width="2.42988" stroke-linecap="round" stroke-linejoin="round"/>
<path d="M11.7363 9.86025C8.1684 16.1409 8.5321 23.1424 12.5489 25.4994C16.5658 27.8565 22.7144 24.6761 26.2823 18.3955C29.8501 12.1149 29.4864 5.11334 25.4689 2.7563C21.4534 0.399266 15.3041 3.57963 11.7363 9.86025Z" stroke="white" stroke-width="2.42988" stroke-linecap="round" stroke-linejoin="round"/>
<path d="M15.2871 5.16187C16.6728 6.41458 17.9551 8.00147 19.0107 9.86018C22.5779 16.1408 22.2142 23.1423 18.1973 25.4994C17.3588 25.9918 16.4273 26.2426 15.4454 26.2741" stroke="white" stroke-width="2.42988" stroke-linecap="round" stroke-linejoin="round"/>
</svg>
