<svg width="9.22" height="9.22" viewBox="0 0 10 10" fill="none" xmlns="http://www.w3.org/2000/svg">
<path d="M3.70683 0.683377C3.65634 0.683377 3.60635 0.674539 3.55971 0.657368C3.51306 0.640196 3.47068 0.615027 3.43498 0.583299C3.39928 0.55157 3.37096 0.513903 3.35164 0.472447C3.33232 0.430991 3.32238 0.38656 3.32238 0.341688C3.32238 0.296817 3.33232 0.252386 3.35164 0.21093C3.37096 0.169474 3.39928 0.131807 3.43498 0.100078C3.47068 0.0683495 3.51306 0.0431809 3.55971 0.0260095C3.60635 0.008838 3.65634 -9.45589e-10 3.70683 0H5.51942C5.62139 1.9097e-09 5.71917 0.0359992 5.79127 0.100078C5.86337 0.164157 5.90388 0.251067 5.90388 0.341688C5.90388 0.43231 5.86337 0.51922 5.79127 0.583299C5.71917 0.647378 5.62139 0.683377 5.51942 0.683377H3.70683ZM1.92808 0.889301C2.00007 0.953368 2.04051 1.04021 2.04051 1.13076C2.04051 1.22131 2.00007 1.30815 1.92808 1.37222L0.646551 2.51118C0.573671 2.57154 0.477276 2.6044 0.377675 2.60283C0.278075 2.60127 0.183044 2.56541 0.112605 2.50281C0.0421658 2.44021 0.00181724 2.35575 5.98969e-05 2.26723C-0.00169744 2.17871 0.0352736 2.09304 0.103184 2.02826L1.38471 0.889301C1.4568 0.825314 1.55451 0.789373 1.65639 0.789373C1.75827 0.789373 1.85599 0.825314 1.92808 0.889301ZM4.73205 1.92803C3.99701 1.92803 3.27848 2.12175 2.66732 2.48469C2.05616 2.84763 1.57981 3.36348 1.29853 3.96702C1.01724 4.57057 0.943641 5.23469 1.08704 5.8754C1.23044 6.51612 1.58439 7.10466 2.10415 7.56659C2.6239 8.02852 3.2861 8.3431 4.00701 8.47055C4.72793 8.59799 5.47518 8.53258 6.15427 8.28259C6.83335 8.03259 7.41378 7.60924 7.82214 7.06607C8.23051 6.52289 8.44848 5.88429 8.44848 5.23102C8.44848 5.1404 8.48898 5.05349 8.56108 4.98941C8.63318 4.92533 8.73097 4.88933 8.83293 4.88933C8.9349 4.88933 9.03269 4.92533 9.10479 4.98941C9.17689 5.05349 9.21739 5.1404 9.21739 5.23102C9.21739 6.01945 8.95433 6.79018 8.46147 7.44573C7.96862 8.10128 7.26811 8.61223 6.44852 8.91395C5.62893 9.21566 4.72708 9.29461 3.85701 9.14079C2.98694 8.98698 2.18773 8.60731 1.56044 8.04981C0.933154 7.49231 0.505967 6.782 0.332899 6.00873C0.159832 5.23545 0.248656 4.43392 0.588141 3.70551C0.927626 2.97709 1.50252 2.35451 2.24013 1.91648C2.97774 1.47845 3.84494 1.24466 4.73205 1.24466C4.83402 1.24466 4.93181 1.28066 5.0039 1.34474C5.076 1.40881 5.11651 1.49572 5.11651 1.58635C5.11651 1.67697 5.076 1.76388 5.0039 1.82796C4.93181 1.89204 4.83402 1.92803 4.73205 1.92803Z" fill="#059B93"/>
<path d="M7.39143 3.11887C7.44856 3.05312 7.47677 2.97112 7.4708 2.88822C7.46483 2.80531 7.42508 2.72718 7.35898 2.66844C7.29289 2.6097 7.20497 2.57437 7.11169 2.56906C7.01841 2.56375 6.92615 2.58883 6.85216 2.6396L5.22719 3.76262L4.16506 4.43688C4.06318 4.50171 3.97841 4.58548 3.91662 4.68236C3.85484 4.77924 3.81752 4.88692 3.80728 4.99791C3.79703 5.1089 3.81409 5.22054 3.85727 5.32508C3.90045 5.42962 3.96873 5.52455 4.05735 5.60328C4.14597 5.682 4.25281 5.74264 4.37045 5.78098C4.4881 5.81931 4.61372 5.83443 4.7386 5.82527C4.86347 5.81612 4.98461 5.78291 5.09359 5.72795C5.20258 5.673 5.29679 5.59762 5.3697 5.50705L6.12785 4.56308L7.39143 3.11887Z" fill="#059B93"/>
</svg>
