<svg width="26" height="26" viewBox="0 0 48 48" fill="none" xmlns="http://www.w3.org/2000/svg">
<g clip-path="url(#clip0_0_649)">
<path d="M12 0C11.0532 0 10.2856 0.767511 10.2856 1.71432V5.14285H13.7142V1.71432C13.7142 0.767511 12.9467 0 12 0Z" fill="#F5F5FC"/>
<path d="M36 0C35.0532 0 34.2856 0.767511 34.2856 1.71432V5.14285H37.7142V1.71432C37.7143 0.767511 36.9468 0 36 0Z" fill="#F5F5FC"/>
<path d="M42.8571 5.14258H37.7143V11.9997C37.7143 12.9466 36.9468 13.7141 36 13.7141C35.0532 13.7141 34.2857 12.9466 34.2857 11.9997V5.14258H13.7142V11.9997C13.7142 12.9466 12.9467 13.7141 11.9999 13.7141C11.0531 13.7141 10.2856 12.9466 10.2856 11.9997V5.14258H5.14285C2.30253 5.14258 0 7.44511 0 10.2854V42.8569C0 45.6972 2.30253 47.9997 5.14285 47.9997H42.8571C45.6975 47.9997 48 45.6972 48 42.8569V10.2854C48 7.44511 45.6975 5.14258 42.8571 5.14258ZM44.5714 42.8569C44.5714 43.8037 43.8039 44.5712 42.857 44.5712H5.14285C4.19605 44.5712 3.42854 43.8037 3.42854 42.8569V20.5711H44.5714V42.8569Z" fill="#F5F5FC"/>
<path d="M13.7141 24H10.2856C9.3388 24 8.57129 24.7675 8.57129 25.7143C8.57129 26.6611 9.3388 27.4286 10.2856 27.4286H13.7141C14.6609 27.4286 15.4285 26.6611 15.4285 25.7143C15.4285 24.7675 14.6609 24 13.7141 24Z" fill="#F5F5FC"/>
<path d="M25.7141 24H22.2856C21.3388 24 20.5713 24.7675 20.5713 25.7143C20.5713 26.6611 21.3388 27.4286 22.2856 27.4286H25.7141C26.661 27.4286 27.4285 26.6611 27.4285 25.7143C27.4285 24.7675 26.661 24 25.7141 24Z" fill="#F5F5FC"/>
<path d="M37.7141 24H34.2856C33.3388 24 32.5713 24.7675 32.5713 25.7143C32.5713 26.6611 33.3388 27.4286 34.2856 27.4286H37.7141C38.661 27.4286 39.4285 26.6611 39.4285 25.7143C39.4285 24.7675 38.6609 24 37.7141 24Z" fill="#F5F5FC"/>
<path d="M13.7141 30.8574H10.2856C9.3388 30.8574 8.57129 31.6249 8.57129 32.5717C8.57129 33.5186 9.3388 34.2861 10.2856 34.2861H13.7141C14.6609 34.2861 15.4285 33.5186 15.4285 32.5717C15.4285 31.6249 14.6609 30.8574 13.7141 30.8574Z" fill="#F5F5FC"/>
<path d="M25.7141 30.8574H22.2856C21.3388 30.8574 20.5713 31.6249 20.5713 32.5717C20.5713 33.5186 21.3388 34.2861 22.2856 34.2861H25.7141C26.661 34.2861 27.4285 33.5186 27.4285 32.5717C27.4285 31.6249 26.661 30.8574 25.7141 30.8574Z" fill="#F5F5FC"/>
<path d="M37.7141 30.8574H34.2856C33.3388 30.8574 32.5713 31.6249 32.5713 32.5717C32.5713 33.5186 33.3388 34.2861 34.2856 34.2861H37.7141C38.661 34.2861 39.4285 33.5186 39.4285 32.5717C39.4284 31.6249 38.6609 30.8574 37.7141 30.8574Z" fill="#F5F5FC"/>
<path d="M13.7141 37.7139H10.2856C9.3388 37.7139 8.57129 38.4814 8.57129 39.4282C8.57129 40.375 9.3388 41.1424 10.2856 41.1424H13.7141C14.6609 41.1424 15.4285 40.3749 15.4285 39.4281C15.4285 38.4813 14.6609 37.7139 13.7141 37.7139Z" fill="#F5F5FC"/>
<path d="M25.7141 37.7139H22.2856C21.3388 37.7139 20.5713 38.4814 20.5713 39.4282C20.5713 40.375 21.3388 41.1425 22.2856 41.1425H25.7141C26.661 41.1425 27.4285 40.375 27.4285 39.4282C27.4285 38.4814 26.661 37.7139 25.7141 37.7139Z" fill="#F5F5FC"/>
<path d="M37.7141 37.7139H34.2856C33.3388 37.7139 32.5713 38.4814 32.5713 39.4282C32.5713 40.375 33.3388 41.1425 34.2856 41.1425H37.7141C38.661 41.1425 39.4285 40.375 39.4285 39.4282C39.4285 38.4814 38.6609 37.7139 37.7141 37.7139Z" fill="#F5F5FC"/>
</g>
<defs>
<clipPath id="clip0_0_649">
<rect width="48" height="48" fill="white"/>
</clipPath>
</defs>
</svg>
